<mxfile host="65bd71144e">
    <diagram id="f5-GNXgI_zMe-941o7kl" name="Page-1">
        <mxGraphModel dx="1375" dy="2032" grid="1" gridSize="10" guides="1" tooltips="1" connect="1" arrows="1" fold="1" page="1" pageScale="1" pageWidth="827" pageHeight="1169" math="0" shadow="0">
            <root>
                <mxCell id="0"/>
                <mxCell id="1" parent="0"/>
                <mxCell id="5" value="" style="pointerEvents=1;verticalLabelPosition=bottom;shadow=0;dashed=0;align=center;html=1;verticalAlign=top;shape=mxgraph.electrical.miscellaneous.batteryStack;rotation=-90;" parent="1" vertex="1">
                    <mxGeometry x="100" y="160" width="100" height="60" as="geometry"/>
                </mxCell>
                <mxCell id="8" value="5 V" style="text;html=1;align=center;verticalAlign=middle;resizable=0;points=[];autosize=1;strokeColor=none;fillColor=none;fontSize=11;fontFamily=Helvetica;fontColor=default;" parent="1" vertex="1">
                    <mxGeometry x="80" y="180" width="30" height="20" as="geometry"/>
                </mxCell>
                <mxCell id="9" value="220&amp;nbsp;Î©" style="text;html=1;align=center;verticalAlign=middle;resizable=0;points=[];autosize=1;strokeColor=none;fillColor=none;fontSize=11;fontFamily=Helvetica;fontColor=default;" parent="1" vertex="1">
                    <mxGeometry x="410" y="440" width="40" height="20" as="geometry"/>
                </mxCell>
                <mxCell id="10" value="LED 2" style="text;html=1;align=center;verticalAlign=middle;resizable=0;points=[];autosize=1;strokeColor=none;fillColor=none;fontSize=11;fontFamily=Helvetica;fontColor=default;" parent="1" vertex="1">
                    <mxGeometry x="945" y="370" width="50" height="20" as="geometry"/>
                </mxCell>
                <mxCell id="11" value="Daria Bernice Calitis&lt;br&gt;TEJ3M&lt;br&gt;Unit4-19" style="text;html=1;align=center;verticalAlign=middle;resizable=0;points=[];autosize=1;strokeColor=none;fillColor=none;fontSize=11;fontFamily=Helvetica;fontColor=default;" parent="1" vertex="1">
                    <mxGeometry x="95" y="-10" width="110" height="40" as="geometry"/>
                </mxCell>
                <mxCell id="12" value="2-bit Full&amp;nbsp; Adder" style="text;html=1;align=center;verticalAlign=middle;resizable=0;points=[];autosize=1;strokeColor=none;fillColor=none;" parent="1" vertex="1">
                    <mxGeometry x="570" width="100" height="20" as="geometry"/>
                </mxCell>
                <mxCell id="18" value="+" style="text;html=1;align=center;verticalAlign=middle;resizable=0;points=[];autosize=1;strokeColor=none;fillColor=none;" parent="1" vertex="1">
                    <mxGeometry x="100" y="130" width="20" height="20" as="geometry"/>
                </mxCell>
                <mxCell id="19" value="-" style="text;html=1;align=center;verticalAlign=middle;resizable=0;points=[];autosize=1;strokeColor=none;fillColor=none;" parent="1" vertex="1">
                    <mxGeometry x="100" y="220" width="20" height="20" as="geometry"/>
                </mxCell>
                <mxCell id="41" style="edgeStyle=orthogonalEdgeStyle;html=1;exitX=0;exitY=0.885;exitDx=0;exitDy=0;exitPerimeter=0;entryX=0;entryY=0.25;entryDx=0;entryDy=0;entryPerimeter=0;endArrow=none;endFill=0;rounded=1;strokeColor=#006600;" parent="1" source="23" target="51" edge="1">
                    <mxGeometry relative="1" as="geometry">
                        <mxPoint x="440" y="115" as="targetPoint"/>
                        <Array as="points">
                            <mxPoint x="430" y="103"/>
                            <mxPoint x="430" y="145"/>
                        </Array>
                    </mxGeometry>
                </mxCell>
                <mxCell id="47" style="edgeStyle=orthogonalEdgeStyle;html=1;exitX=1;exitY=0.115;exitDx=0;exitDy=0;exitPerimeter=0;endArrow=none;endFill=0;fillColor=#FF0000;strokeColor=#000000;" parent="1" source="23" edge="1">
                    <mxGeometry relative="1" as="geometry">
                        <mxPoint x="250" y="350" as="targetPoint"/>
                    </mxGeometry>
                </mxCell>
                <mxCell id="49" style="edgeStyle=orthogonalEdgeStyle;html=1;exitX=1;exitY=0.885;exitDx=0;exitDy=0;exitPerimeter=0;entryX=1;entryY=0.5;entryDx=0;entryDy=0;endArrow=none;endFill=0;strokeColor=#FF0000;" parent="1" source="23" target="5" edge="1">
                    <mxGeometry relative="1" as="geometry"/>
                </mxCell>
                <mxCell id="53" style="edgeStyle=orthogonalEdgeStyle;rounded=1;html=1;exitX=0;exitY=0.885;exitDx=0;exitDy=0;exitPerimeter=0;entryX=0;entryY=0.25;entryDx=0;entryDy=0;entryPerimeter=0;endArrow=none;endFill=0;strokeColor=#006600;" parent="1" source="23" target="52" edge="1">
                    <mxGeometry relative="1" as="geometry">
                        <Array as="points">
                            <mxPoint x="390" y="103"/>
                            <mxPoint x="390" y="269"/>
                        </Array>
                    </mxGeometry>
                </mxCell>
                <mxCell id="23" value="" style="pointerEvents=1;verticalLabelPosition=bottom;shadow=0;dashed=0;align=center;html=1;verticalAlign=top;shape=mxgraph.electrical.electro-mechanical.2-way_switch;rotation=-180;" parent="1" vertex="1">
                    <mxGeometry x="270" y="100" width="75" height="26" as="geometry"/>
                </mxCell>
                <mxCell id="29" style="edgeStyle=orthogonalEdgeStyle;rounded=1;orthogonalLoop=1;jettySize=auto;html=1;exitX=1;exitY=0.115;exitDx=0;exitDy=0;exitPerimeter=0;entryX=0;entryY=0.5;entryDx=0;entryDy=0;endArrow=none;endFill=0;strokeColor=#000000;" parent="1" source="30" target="5" edge="1">
                    <mxGeometry relative="1" as="geometry">
                        <Array as="points">
                            <mxPoint x="260" y="277"/>
                            <mxPoint x="260" y="350"/>
                            <mxPoint x="150" y="350"/>
                        </Array>
                    </mxGeometry>
                </mxCell>
                <mxCell id="42" style="edgeStyle=orthogonalEdgeStyle;html=1;exitX=0;exitY=0.885;exitDx=0;exitDy=0;exitPerimeter=0;entryX=0;entryY=0.75;entryDx=0;entryDy=0;entryPerimeter=0;endArrow=none;endFill=0;strokeColor=#000099;" parent="1" source="30" target="51" edge="1">
                    <mxGeometry relative="1" as="geometry">
                        <mxPoint x="414" y="195" as="targetPoint"/>
                        <Array as="points">
                            <mxPoint x="355" y="175"/>
                        </Array>
                    </mxGeometry>
                </mxCell>
                <mxCell id="46" style="edgeStyle=orthogonalEdgeStyle;html=1;exitX=1;exitY=0.885;exitDx=0;exitDy=0;exitPerimeter=0;entryX=1;entryY=0.5;entryDx=0;entryDy=0;endArrow=none;endFill=0;strokeColor=#FF0000;" parent="1" source="30" target="5" edge="1">
                    <mxGeometry relative="1" as="geometry"/>
                </mxCell>
                <mxCell id="54" style="edgeStyle=orthogonalEdgeStyle;rounded=1;html=1;exitX=0;exitY=0.885;exitDx=0;exitDy=0;exitPerimeter=0;endArrow=none;endFill=0;entryX=0;entryY=0.75;entryDx=0;entryDy=0;entryPerimeter=0;strokeColor=#000099;" parent="1" source="30" target="52" edge="1">
                    <mxGeometry relative="1" as="geometry">
                        <Array as="points">
                            <mxPoint x="380" y="257"/>
                            <mxPoint x="380" y="299"/>
                        </Array>
                    </mxGeometry>
                </mxCell>
                <mxCell id="30" value="" style="pointerEvents=1;verticalLabelPosition=bottom;shadow=0;dashed=0;align=center;html=1;verticalAlign=top;shape=mxgraph.electrical.electro-mechanical.2-way_switch;rotation=-180;" parent="1" vertex="1">
                    <mxGeometry x="270" y="254" width="75" height="26" as="geometry"/>
                </mxCell>
                <mxCell id="33" value="&lt;h1&gt;Input A&lt;/h1&gt;" style="text;html=1;strokeColor=none;fillColor=none;spacing=5;spacingTop=-20;whiteSpace=wrap;overflow=hidden;rounded=0;" parent="1" vertex="1">
                    <mxGeometry x="245" y="55" width="100" height="40" as="geometry"/>
                </mxCell>
                <mxCell id="34" value="&lt;h1&gt;Input B&lt;/h1&gt;" style="text;html=1;strokeColor=none;fillColor=none;spacing=5;spacingTop=-20;whiteSpace=wrap;overflow=hidden;rounded=0;" parent="1" vertex="1">
                    <mxGeometry x="255" y="180" width="100" height="40" as="geometry"/>
                </mxCell>
                <mxCell id="35" value="&lt;h1&gt;Outputs&lt;/h1&gt;" style="text;html=1;strokeColor=none;fillColor=none;spacing=5;spacingTop=-20;whiteSpace=wrap;overflow=hidden;rounded=0;" parent="1" vertex="1">
                    <mxGeometry x="930" y="81" width="100" height="40" as="geometry"/>
                </mxCell>
                <mxCell id="82" style="edgeStyle=orthogonalEdgeStyle;html=1;exitX=1;exitY=0.5;exitDx=0;exitDy=0;exitPerimeter=0;entryX=0;entryY=0.25;entryDx=0;entryDy=0;entryPerimeter=0;endArrow=none;endFill=0;strokeColor=#000000;" parent="1" source="51" target="81" edge="1">
                    <mxGeometry relative="1" as="geometry"/>
                </mxCell>
                <mxCell id="51" value="" style="verticalLabelPosition=bottom;shadow=0;dashed=0;align=center;html=1;verticalAlign=top;shape=mxgraph.electrical.logic_gates.logic_gate;operation=xor;" parent="1" vertex="1">
                    <mxGeometry x="480" y="130" width="100" height="60" as="geometry"/>
                </mxCell>
                <mxCell id="86" style="edgeStyle=orthogonalEdgeStyle;html=1;exitX=1;exitY=0.5;exitDx=0;exitDy=0;exitPerimeter=0;entryX=0;entryY=0.75;entryDx=0;entryDy=0;entryPerimeter=0;endArrow=none;endFill=0;strokeColor=#000000;" parent="1" source="52" target="84" edge="1">
                    <mxGeometry relative="1" as="geometry">
                        <Array as="points">
                            <mxPoint x="590" y="284"/>
                            <mxPoint x="590" y="345"/>
                        </Array>
                    </mxGeometry>
                </mxCell>
                <mxCell id="52" value="" style="verticalLabelPosition=bottom;shadow=0;dashed=0;align=center;html=1;verticalAlign=top;shape=mxgraph.electrical.logic_gates.logic_gate;operation=and;" parent="1" vertex="1">
                    <mxGeometry x="470" y="254" width="100" height="60" as="geometry"/>
                </mxCell>
                <mxCell id="57" value="Sum" style="text;html=1;align=center;verticalAlign=middle;resizable=0;points=[];autosize=1;strokeColor=none;fillColor=none;" parent="1" vertex="1">
                    <mxGeometry x="950" y="121" width="40" height="20" as="geometry"/>
                </mxCell>
                <mxCell id="58" value="Carry&lt;sub&gt;out&lt;/sub&gt;" style="text;html=1;align=center;verticalAlign=middle;resizable=0;points=[];autosize=1;strokeColor=none;fillColor=none;" parent="1" vertex="1">
                    <mxGeometry x="940" y="390" width="60" height="20" as="geometry"/>
                </mxCell>
                <mxCell id="93" style="edgeStyle=orthogonalEdgeStyle;html=1;exitX=1;exitY=0.57;exitDx=0;exitDy=0;exitPerimeter=0;entryX=1;entryY=0.5;entryDx=0;entryDy=0;entryPerimeter=0;endArrow=none;endFill=0;strokeColor=#000000;" parent="1" source="59" target="69" edge="1">
                    <mxGeometry relative="1" as="geometry">
                        <Array as="points">
                            <mxPoint x="1060" y="200"/>
                            <mxPoint x="1060" y="420"/>
                        </Array>
                    </mxGeometry>
                </mxCell>
                <mxCell id="59" value="" style="verticalLabelPosition=bottom;shadow=0;dashed=0;align=center;html=1;verticalAlign=top;shape=mxgraph.electrical.opto_electronics.led_2;pointerEvents=1;" parent="1" vertex="1">
                    <mxGeometry x="930" y="160" width="100" height="70" as="geometry"/>
                </mxCell>
                <mxCell id="94" style="edgeStyle=orthogonalEdgeStyle;html=1;exitX=1;exitY=0.57;exitDx=0;exitDy=0;exitPerimeter=0;endArrow=none;endFill=0;strokeColor=#000000;" parent="1" source="61" edge="1">
                    <mxGeometry relative="1" as="geometry">
                        <mxPoint x="1060" y="330" as="targetPoint"/>
                    </mxGeometry>
                </mxCell>
                <mxCell id="61" value="" style="verticalLabelPosition=bottom;shadow=0;dashed=0;align=center;html=1;verticalAlign=top;shape=mxgraph.electrical.opto_electronics.led_2;pointerEvents=1;" parent="1" vertex="1">
                    <mxGeometry x="925" y="290" width="100" height="70" as="geometry"/>
                </mxCell>
                <mxCell id="73" style="edgeStyle=orthogonalEdgeStyle;rounded=1;html=1;exitX=0;exitY=0.5;exitDx=0;exitDy=0;exitPerimeter=0;endArrow=none;endFill=0;strokeColor=#000000;" parent="1" source="69" target="5" edge="1">
                    <mxGeometry relative="1" as="geometry"/>
                </mxCell>
                <mxCell id="69" value="" style="pointerEvents=1;verticalLabelPosition=bottom;shadow=0;dashed=0;align=center;html=1;verticalAlign=top;shape=mxgraph.electrical.resistors.resistor_1;" parent="1" vertex="1">
                    <mxGeometry x="380" y="410" width="100" height="20" as="geometry"/>
                </mxCell>
                <mxCell id="70" value="LED 1" style="text;html=1;align=center;verticalAlign=middle;resizable=0;points=[];autosize=1;strokeColor=none;fillColor=none;fontSize=11;fontFamily=Helvetica;fontColor=default;" parent="1" vertex="1">
                    <mxGeometry x="945" y="136" width="50" height="20" as="geometry"/>
                </mxCell>
                <mxCell id="85" style="edgeStyle=orthogonalEdgeStyle;html=1;exitX=0;exitY=0.885;exitDx=0;exitDy=0;exitPerimeter=0;entryX=0;entryY=0.75;entryDx=0;entryDy=0;entryPerimeter=0;endArrow=none;endFill=0;strokeColor=#FF8000;" parent="1" target="81" edge="1">
                    <mxGeometry relative="1" as="geometry">
                        <Array as="points">
                            <mxPoint x="430" y="373"/>
                            <mxPoint x="430" y="215"/>
                        </Array>
                        <mxPoint x="345" y="372.9900000000001" as="sourcePoint"/>
                    </mxGeometry>
                </mxCell>
                <mxCell id="75" value="&lt;h1&gt;Carry&lt;sub&gt;in&lt;/sub&gt;&lt;/h1&gt;" style="text;html=1;strokeColor=none;fillColor=none;spacing=5;spacingTop=-20;whiteSpace=wrap;overflow=hidden;rounded=0;" parent="1" vertex="1">
                    <mxGeometry x="265" y="300" width="100" height="40" as="geometry"/>
                </mxCell>
                <mxCell id="91" style="edgeStyle=orthogonalEdgeStyle;html=1;exitX=1;exitY=0.5;exitDx=0;exitDy=0;exitPerimeter=0;entryX=0;entryY=0.57;entryDx=0;entryDy=0;entryPerimeter=0;endArrow=none;endFill=0;strokeColor=#000000;" parent="1" source="81" target="59" edge="1">
                    <mxGeometry relative="1" as="geometry"/>
                </mxCell>
                <mxCell id="81" value="" style="verticalLabelPosition=bottom;shadow=0;dashed=0;align=center;html=1;verticalAlign=top;shape=mxgraph.electrical.logic_gates.logic_gate;operation=xor;" parent="1" vertex="1">
                    <mxGeometry x="660" y="170" width="100" height="60" as="geometry"/>
                </mxCell>
                <mxCell id="87" style="edgeStyle=orthogonalEdgeStyle;html=1;exitX=1;exitY=0.5;exitDx=0;exitDy=0;exitPerimeter=0;entryX=0;entryY=0.25;entryDx=0;entryDy=0;entryPerimeter=0;endArrow=none;endFill=0;strokeColor=#000000;" parent="1" source="83" target="84" edge="1">
                    <mxGeometry relative="1" as="geometry"/>
                </mxCell>
                <mxCell id="88" style="edgeStyle=orthogonalEdgeStyle;html=1;exitX=0;exitY=0.25;exitDx=0;exitDy=0;exitPerimeter=0;endArrow=none;endFill=0;strokeColor=#000000;" parent="1" source="83" edge="1">
                    <mxGeometry relative="1" as="geometry">
                        <mxPoint x="620" y="170" as="targetPoint"/>
                    </mxGeometry>
                </mxCell>
                <mxCell id="89" style="edgeStyle=orthogonalEdgeStyle;html=1;exitX=0;exitY=0.75;exitDx=0;exitDy=0;exitPerimeter=0;endArrow=none;endFill=0;strokeColor=#FF8000;" parent="1" source="83" edge="1">
                    <mxGeometry relative="1" as="geometry">
                        <Array as="points">
                            <mxPoint x="620" y="315"/>
                            <mxPoint x="620" y="373"/>
                        </Array>
                        <mxPoint x="150" y="373" as="targetPoint"/>
                    </mxGeometry>
                </mxCell>
                <mxCell id="83" value="" style="verticalLabelPosition=bottom;shadow=0;dashed=0;align=center;html=1;verticalAlign=top;shape=mxgraph.electrical.logic_gates.logic_gate;operation=and;" parent="1" vertex="1">
                    <mxGeometry x="650" y="270" width="100" height="60" as="geometry"/>
                </mxCell>
                <mxCell id="92" style="edgeStyle=orthogonalEdgeStyle;html=1;exitX=1;exitY=0.5;exitDx=0;exitDy=0;exitPerimeter=0;entryX=0;entryY=0.57;entryDx=0;entryDy=0;entryPerimeter=0;endArrow=none;endFill=0;strokeColor=#000000;" parent="1" source="84" target="61" edge="1">
                    <mxGeometry relative="1" as="geometry"/>
                </mxCell>
                <mxCell id="84" value="" style="verticalLabelPosition=bottom;shadow=0;dashed=0;align=center;html=1;verticalAlign=top;shape=mxgraph.electrical.logic_gates.logic_gate;operation=or;" parent="1" vertex="1">
                    <mxGeometry x="790" y="300" width="100" height="60" as="geometry"/>
                </mxCell>
                <mxCell id="95" value="" style="pointerEvents=1;verticalLabelPosition=bottom;shadow=0;dashed=0;align=center;html=1;verticalAlign=top;shape=mxgraph.electrical.miscellaneous.batteryStack;rotation=-90;" vertex="1" parent="1">
                    <mxGeometry x="99.92" y="575" width="100" height="60" as="geometry"/>
                </mxCell>
                <mxCell id="96" value="5 V" style="text;html=1;align=center;verticalAlign=middle;resizable=0;points=[];autosize=1;strokeColor=none;fillColor=none;fontSize=11;fontFamily=Helvetica;fontColor=default;" vertex="1" parent="1">
                    <mxGeometry x="79.92" y="595" width="30" height="20" as="geometry"/>
                </mxCell>
                <mxCell id="97" value="220&amp;nbsp;Î©" style="text;html=1;align=center;verticalAlign=middle;resizable=0;points=[];autosize=1;strokeColor=none;fillColor=none;fontSize=11;fontFamily=Helvetica;fontColor=default;" vertex="1" parent="1">
                    <mxGeometry x="409.92" y="855" width="40" height="20" as="geometry"/>
                </mxCell>
                <mxCell id="98" value="LED 2" style="text;html=1;align=center;verticalAlign=middle;resizable=0;points=[];autosize=1;strokeColor=none;fillColor=none;fontSize=11;fontFamily=Helvetica;fontColor=default;" vertex="1" parent="1">
                    <mxGeometry x="944.92" y="785" width="50" height="20" as="geometry"/>
                </mxCell>
                <mxCell id="99" value="+" style="text;html=1;align=center;verticalAlign=middle;resizable=0;points=[];autosize=1;strokeColor=none;fillColor=none;" vertex="1" parent="1">
                    <mxGeometry x="99.92" y="545" width="20" height="20" as="geometry"/>
                </mxCell>
                <mxCell id="100" value="-" style="text;html=1;align=center;verticalAlign=middle;resizable=0;points=[];autosize=1;strokeColor=none;fillColor=none;" vertex="1" parent="1">
                    <mxGeometry x="99.92" y="635" width="20" height="20" as="geometry"/>
                </mxCell>
                <mxCell id="101" style="edgeStyle=orthogonalEdgeStyle;html=1;exitX=0;exitY=0.885;exitDx=0;exitDy=0;exitPerimeter=0;entryX=0;entryY=0.25;entryDx=0;entryDy=0;entryPerimeter=0;endArrow=none;endFill=0;rounded=1;strokeColor=#006600;" edge="1" parent="1" source="105" target="115">
                    <mxGeometry relative="1" as="geometry">
                        <mxPoint x="439.92" y="530" as="targetPoint"/>
                        <Array as="points">
                            <mxPoint x="429.92" y="518"/>
                            <mxPoint x="429.92" y="560"/>
                        </Array>
                    </mxGeometry>
                </mxCell>
                <mxCell id="102" style="edgeStyle=orthogonalEdgeStyle;html=1;exitX=1;exitY=0.115;exitDx=0;exitDy=0;exitPerimeter=0;endArrow=none;endFill=0;fillColor=#FF0000;strokeColor=#000000;" edge="1" parent="1" source="105">
                    <mxGeometry relative="1" as="geometry">
                        <mxPoint x="249.92" y="765" as="targetPoint"/>
                    </mxGeometry>
                </mxCell>
                <mxCell id="103" style="edgeStyle=orthogonalEdgeStyle;html=1;exitX=1;exitY=0.885;exitDx=0;exitDy=0;exitPerimeter=0;entryX=1;entryY=0.5;entryDx=0;entryDy=0;endArrow=none;endFill=0;strokeColor=#FF0000;" edge="1" parent="1" source="105" target="95">
                    <mxGeometry relative="1" as="geometry"/>
                </mxCell>
                <mxCell id="104" style="edgeStyle=orthogonalEdgeStyle;rounded=1;html=1;exitX=0;exitY=0.885;exitDx=0;exitDy=0;exitPerimeter=0;entryX=0;entryY=0.25;entryDx=0;entryDy=0;entryPerimeter=0;endArrow=none;endFill=0;strokeColor=#006600;" edge="1" parent="1" source="105" target="117">
                    <mxGeometry relative="1" as="geometry">
                        <Array as="points">
                            <mxPoint x="389.92" y="518"/>
                            <mxPoint x="389.92" y="684"/>
                        </Array>
                    </mxGeometry>
                </mxCell>
                <mxCell id="105" value="" style="pointerEvents=1;verticalLabelPosition=bottom;shadow=0;dashed=0;align=center;html=1;verticalAlign=top;shape=mxgraph.electrical.electro-mechanical.2-way_switch;rotation=-180;" vertex="1" parent="1">
                    <mxGeometry x="269.92" y="515" width="75" height="26" as="geometry"/>
                </mxCell>
                <mxCell id="106" style="edgeStyle=orthogonalEdgeStyle;rounded=1;orthogonalLoop=1;jettySize=auto;html=1;exitX=1;exitY=0.115;exitDx=0;exitDy=0;exitPerimeter=0;entryX=0;entryY=0.5;entryDx=0;entryDy=0;endArrow=none;endFill=0;strokeColor=#000000;" edge="1" parent="1" source="110" target="95">
                    <mxGeometry relative="1" as="geometry">
                        <Array as="points">
                            <mxPoint x="259.92" y="692"/>
                            <mxPoint x="259.92" y="765"/>
                            <mxPoint x="149.92" y="765"/>
                        </Array>
                    </mxGeometry>
                </mxCell>
                <mxCell id="107" style="edgeStyle=orthogonalEdgeStyle;html=1;exitX=0;exitY=0.885;exitDx=0;exitDy=0;exitPerimeter=0;entryX=0;entryY=0.75;entryDx=0;entryDy=0;entryPerimeter=0;endArrow=none;endFill=0;strokeColor=#000099;" edge="1" parent="1" source="110" target="115">
                    <mxGeometry relative="1" as="geometry">
                        <mxPoint x="413.92" y="610" as="targetPoint"/>
                        <Array as="points">
                            <mxPoint x="354.92" y="590"/>
                        </Array>
                    </mxGeometry>
                </mxCell>
                <mxCell id="108" style="edgeStyle=orthogonalEdgeStyle;html=1;exitX=1;exitY=0.885;exitDx=0;exitDy=0;exitPerimeter=0;entryX=1;entryY=0.5;entryDx=0;entryDy=0;endArrow=none;endFill=0;strokeColor=#FF0000;" edge="1" parent="1" source="110" target="95">
                    <mxGeometry relative="1" as="geometry"/>
                </mxCell>
                <mxCell id="109" style="edgeStyle=orthogonalEdgeStyle;rounded=1;html=1;exitX=0;exitY=0.885;exitDx=0;exitDy=0;exitPerimeter=0;endArrow=none;endFill=0;entryX=0;entryY=0.75;entryDx=0;entryDy=0;entryPerimeter=0;strokeColor=#000099;" edge="1" parent="1" source="110" target="117">
                    <mxGeometry relative="1" as="geometry">
                        <Array as="points">
                            <mxPoint x="379.92" y="672"/>
                            <mxPoint x="379.92" y="714"/>
                        </Array>
                    </mxGeometry>
                </mxCell>
                <mxCell id="110" value="" style="pointerEvents=1;verticalLabelPosition=bottom;shadow=0;dashed=0;align=center;html=1;verticalAlign=top;shape=mxgraph.electrical.electro-mechanical.2-way_switch;rotation=-180;" vertex="1" parent="1">
                    <mxGeometry x="269.92" y="669" width="75" height="26" as="geometry"/>
                </mxCell>
                <mxCell id="111" value="&lt;h1&gt;Input A&lt;/h1&gt;" style="text;html=1;strokeColor=none;fillColor=none;spacing=5;spacingTop=-20;whiteSpace=wrap;overflow=hidden;rounded=0;" vertex="1" parent="1">
                    <mxGeometry x="244.92" y="470" width="100" height="40" as="geometry"/>
                </mxCell>
                <mxCell id="112" value="&lt;h1&gt;Input B&lt;/h1&gt;" style="text;html=1;strokeColor=none;fillColor=none;spacing=5;spacingTop=-20;whiteSpace=wrap;overflow=hidden;rounded=0;" vertex="1" parent="1">
                    <mxGeometry x="254.92" y="595" width="100" height="40" as="geometry"/>
                </mxCell>
                <mxCell id="113" value="&lt;h1&gt;Outputs&lt;/h1&gt;" style="text;html=1;strokeColor=none;fillColor=none;spacing=5;spacingTop=-20;whiteSpace=wrap;overflow=hidden;rounded=0;" vertex="1" parent="1">
                    <mxGeometry x="929.92" y="496" width="100" height="40" as="geometry"/>
                </mxCell>
                <mxCell id="114" style="edgeStyle=orthogonalEdgeStyle;html=1;exitX=1;exitY=0.5;exitDx=0;exitDy=0;exitPerimeter=0;entryX=0;entryY=0.25;entryDx=0;entryDy=0;entryPerimeter=0;endArrow=none;endFill=0;strokeColor=#000000;" edge="1" parent="1" source="115" target="130">
                    <mxGeometry relative="1" as="geometry"/>
                </mxCell>
                <mxCell id="115" value="" style="verticalLabelPosition=bottom;shadow=0;dashed=0;align=center;html=1;verticalAlign=top;shape=mxgraph.electrical.logic_gates.logic_gate;operation=xor;" vertex="1" parent="1">
                    <mxGeometry x="479.92" y="545" width="100" height="60" as="geometry"/>
                </mxCell>
                <mxCell id="116" style="edgeStyle=orthogonalEdgeStyle;html=1;exitX=1;exitY=0.5;exitDx=0;exitDy=0;exitPerimeter=0;entryX=0;entryY=0.75;entryDx=0;entryDy=0;entryPerimeter=0;endArrow=none;endFill=0;strokeColor=#000000;" edge="1" parent="1" source="117" target="136">
                    <mxGeometry relative="1" as="geometry">
                        <Array as="points">
                            <mxPoint x="589.92" y="699"/>
                            <mxPoint x="589.92" y="760"/>
                        </Array>
                    </mxGeometry>
                </mxCell>
                <mxCell id="117" value="" style="verticalLabelPosition=bottom;shadow=0;dashed=0;align=center;html=1;verticalAlign=top;shape=mxgraph.electrical.logic_gates.logic_gate;operation=and;" vertex="1" parent="1">
                    <mxGeometry x="469.92" y="669" width="100" height="60" as="geometry"/>
                </mxCell>
                <mxCell id="118" value="Sum" style="text;html=1;align=center;verticalAlign=middle;resizable=0;points=[];autosize=1;strokeColor=none;fillColor=none;" vertex="1" parent="1">
                    <mxGeometry x="949.92" y="536" width="40" height="20" as="geometry"/>
                </mxCell>
                <mxCell id="119" value="Carry&lt;sub&gt;out&lt;/sub&gt;" style="text;html=1;align=center;verticalAlign=middle;resizable=0;points=[];autosize=1;strokeColor=none;fillColor=none;" vertex="1" parent="1">
                    <mxGeometry x="939.92" y="805" width="60" height="20" as="geometry"/>
                </mxCell>
                <mxCell id="120" style="edgeStyle=orthogonalEdgeStyle;html=1;exitX=1;exitY=0.57;exitDx=0;exitDy=0;exitPerimeter=0;entryX=1;entryY=0.5;entryDx=0;entryDy=0;entryPerimeter=0;endArrow=none;endFill=0;strokeColor=#000000;" edge="1" parent="1" source="121" target="125">
                    <mxGeometry relative="1" as="geometry">
                        <Array as="points">
                            <mxPoint x="1059.92" y="615"/>
                            <mxPoint x="1059.92" y="835"/>
                        </Array>
                    </mxGeometry>
                </mxCell>
                <mxCell id="121" value="" style="verticalLabelPosition=bottom;shadow=0;dashed=0;align=center;html=1;verticalAlign=top;shape=mxgraph.electrical.opto_electronics.led_2;pointerEvents=1;" vertex="1" parent="1">
                    <mxGeometry x="929.92" y="575" width="100" height="70" as="geometry"/>
                </mxCell>
                <mxCell id="122" style="edgeStyle=orthogonalEdgeStyle;html=1;exitX=1;exitY=0.57;exitDx=0;exitDy=0;exitPerimeter=0;endArrow=none;endFill=0;strokeColor=#000000;" edge="1" parent="1" source="123">
                    <mxGeometry relative="1" as="geometry">
                        <mxPoint x="1059.92" y="745" as="targetPoint"/>
                    </mxGeometry>
                </mxCell>
                <mxCell id="123" value="" style="verticalLabelPosition=bottom;shadow=0;dashed=0;align=center;html=1;verticalAlign=top;shape=mxgraph.electrical.opto_electronics.led_2;pointerEvents=1;" vertex="1" parent="1">
                    <mxGeometry x="924.92" y="705" width="100" height="70" as="geometry"/>
                </mxCell>
                <mxCell id="124" style="edgeStyle=orthogonalEdgeStyle;rounded=1;html=1;exitX=0;exitY=0.5;exitDx=0;exitDy=0;exitPerimeter=0;endArrow=none;endFill=0;strokeColor=#000000;" edge="1" parent="1" source="125" target="95">
                    <mxGeometry relative="1" as="geometry"/>
                </mxCell>
                <mxCell id="125" value="" style="pointerEvents=1;verticalLabelPosition=bottom;shadow=0;dashed=0;align=center;html=1;verticalAlign=top;shape=mxgraph.electrical.resistors.resistor_1;" vertex="1" parent="1">
                    <mxGeometry x="379.92" y="825" width="100" height="20" as="geometry"/>
                </mxCell>
                <mxCell id="126" value="LED 1" style="text;html=1;align=center;verticalAlign=middle;resizable=0;points=[];autosize=1;strokeColor=none;fillColor=none;fontSize=11;fontFamily=Helvetica;fontColor=default;" vertex="1" parent="1">
                    <mxGeometry x="944.92" y="551" width="50" height="20" as="geometry"/>
                </mxCell>
                <mxCell id="128" value="&lt;h1&gt;Carry&lt;sub&gt;in&lt;/sub&gt;&lt;/h1&gt;" style="text;html=1;strokeColor=none;fillColor=none;spacing=5;spacingTop=-20;whiteSpace=wrap;overflow=hidden;rounded=0;" vertex="1" parent="1">
                    <mxGeometry x="279.92" y="735" width="100" height="40" as="geometry"/>
                </mxCell>
                <mxCell id="129" style="edgeStyle=orthogonalEdgeStyle;html=1;exitX=1;exitY=0.5;exitDx=0;exitDy=0;exitPerimeter=0;entryX=0;entryY=0.57;entryDx=0;entryDy=0;entryPerimeter=0;endArrow=none;endFill=0;strokeColor=#000000;" edge="1" parent="1" source="130" target="121">
                    <mxGeometry relative="1" as="geometry"/>
                </mxCell>
                <mxCell id="137" style="edgeStyle=orthogonalEdgeStyle;html=1;exitX=0;exitY=0.75;exitDx=0;exitDy=0;exitPerimeter=0;entryX=1;entryY=0.57;entryDx=0;entryDy=0;entryPerimeter=0;strokeColor=#FF8000;endArrow=none;endFill=0;" edge="1" parent="1" source="130" target="61">
                    <mxGeometry relative="1" as="geometry">
                        <Array as="points">
                            <mxPoint x="570" y="630"/>
                            <mxPoint x="570" y="780"/>
                            <mxPoint x="60" y="780"/>
                            <mxPoint x="60" y="460"/>
                            <mxPoint x="1060" y="460"/>
                            <mxPoint x="1060" y="330"/>
                        </Array>
                    </mxGeometry>
                </mxCell>
                <mxCell id="130" value="" style="verticalLabelPosition=bottom;shadow=0;dashed=0;align=center;html=1;verticalAlign=top;shape=mxgraph.electrical.logic_gates.logic_gate;operation=xor;" vertex="1" parent="1">
                    <mxGeometry x="659.92" y="585" width="100" height="60" as="geometry"/>
                </mxCell>
                <mxCell id="131" style="edgeStyle=orthogonalEdgeStyle;html=1;exitX=1;exitY=0.5;exitDx=0;exitDy=0;exitPerimeter=0;entryX=0;entryY=0.25;entryDx=0;entryDy=0;entryPerimeter=0;endArrow=none;endFill=0;strokeColor=#000000;" edge="1" parent="1" source="134" target="136">
                    <mxGeometry relative="1" as="geometry"/>
                </mxCell>
                <mxCell id="132" style="edgeStyle=orthogonalEdgeStyle;html=1;exitX=0;exitY=0.25;exitDx=0;exitDy=0;exitPerimeter=0;endArrow=none;endFill=0;strokeColor=#000000;" edge="1" parent="1" source="134">
                    <mxGeometry relative="1" as="geometry">
                        <mxPoint x="619.92" y="585" as="targetPoint"/>
                    </mxGeometry>
                </mxCell>
                <mxCell id="133" style="edgeStyle=orthogonalEdgeStyle;html=1;exitX=0;exitY=0.75;exitDx=0;exitDy=0;exitPerimeter=0;endArrow=none;endFill=0;strokeColor=#FF8000;entryX=1;entryY=0.57;entryDx=0;entryDy=0;entryPerimeter=0;" edge="1" parent="1" source="134" target="61">
                    <mxGeometry relative="1" as="geometry">
                        <Array as="points">
                            <mxPoint x="620" y="730"/>
                            <mxPoint x="620" y="780"/>
                            <mxPoint x="60" y="780"/>
                            <mxPoint x="60" y="460"/>
                            <mxPoint x="1060" y="460"/>
                            <mxPoint x="1060" y="330"/>
                        </Array>
                        <mxPoint x="149.92" y="788" as="targetPoint"/>
                    </mxGeometry>
                </mxCell>
                <mxCell id="134" value="" style="verticalLabelPosition=bottom;shadow=0;dashed=0;align=center;html=1;verticalAlign=top;shape=mxgraph.electrical.logic_gates.logic_gate;operation=and;" vertex="1" parent="1">
                    <mxGeometry x="649.92" y="685" width="100" height="60" as="geometry"/>
                </mxCell>
                <mxCell id="135" style="edgeStyle=orthogonalEdgeStyle;html=1;exitX=1;exitY=0.5;exitDx=0;exitDy=0;exitPerimeter=0;entryX=0;entryY=0.57;entryDx=0;entryDy=0;entryPerimeter=0;endArrow=none;endFill=0;strokeColor=#000000;" edge="1" parent="1" source="136" target="123">
                    <mxGeometry relative="1" as="geometry"/>
                </mxCell>
                <mxCell id="136" value="" style="verticalLabelPosition=bottom;shadow=0;dashed=0;align=center;html=1;verticalAlign=top;shape=mxgraph.electrical.logic_gates.logic_gate;operation=or;" vertex="1" parent="1">
                    <mxGeometry x="789.92" y="715" width="100" height="60" as="geometry"/>
                </mxCell>
                <mxCell id="138" value="" style="shape=image;verticalLabelPosition=bottom;labelBackgroundColor=#ffffff;verticalAlign=top;aspect=fixed;imageAspect=0;image=data:image/png,iVBORw0KGgoAAAANSUhEUgAAASAAAAGcCAIAAAD26erZAAAgAElEQVR4nOy9Z5Bc2XWgee/zJr3PqsxyWb4KhYIt2AYaYHejjch2ZJNBasiZ4a5WG6GNkBQhxW7Mj4kNxQT1Z6mIUcRKGxrNSiJX0pDNJts32qAbvmEKhQLKe5/e58vn7/54QDWIBlDpgCox6vvBCFbjnTzvvnuuOefccyFCCGyzzTaPB2yzFagQhJCiKIVCYXuA2GYrQwAA0un0ZqtRNgghXddVVZVlGUK42epss82DIQAAq6urBEHQNE1SVJXidF3XVBUAgBMEhlU7PSqyrOuIpEgMYuA+I0IIIaQjpGka+G0De9RT5VMsFgkcr75lEEKaqkmSSFIUBkttGQQA0nVNU2mawfDNX25IoohhGEGQENtCg5ooihiEFE1vtiJfgXRdURSEEAEACIfDPM/b7Q6aYauUq2maJEkAABbHMQyvUposK4qikBSJ4Rh4kK088Ac2fKos8vk8x3HVt4yua6qmpjMZi8VGEGSJTyGkK4oiiQJF09W3Z/UIQpGkKIIkt4Iy6wiCQBAEw3KbrchXqDoSRVHXdQIAgBDCcZzjObvdXqVcSRQhgAAAi8VCM0yV0jRNlSXJYrFSFFX6OrCypx5GOpXieb76llFVlSDy2UyO43mKKnWs1TRNkSSkqxaLhanayKtHKORphrFarSRZ7ZReQwr5HEGS1X+jGiLLkqapmqrWetWx3qFrsS+CAABYto1U9tQjxdVCDFyXVYbErx6qlR5VA9f/ZwsB4RZTyeh/EJa8Gdhmm20qYNvAttnmMbJtYNts8xjZNrBttnmMECX+O13TRCEnKIhjWY6t1D2IkKZK0XhSEEQIIYYTDoeD4xgCL8/nKxWFTDYrFCWcpJwOB0NTWMlhGUWWcpl0Jl/UEWIY1mw2m018xR4RWSzmstlUrmAIoBnWZLbYLHzpEkShkMvnC0XRkMByJpPJxLE1DOkgWZLzuUw2L2AEaTaZLRYzvklRLIR0WSgUFURSFM8xAABRyEuKjhGkmd98H6ksiYV8juKsDE3WqolKNTBJKi7NTkfyekNDsDHgr6xHIoTkYn5udj4viFaLCSA9kcoFAn6Py16iPKTrqizOz8/l8oKmAwhhIpVtDNbZLOYSVSoW8isLs9GcStMUTRIMy3r9AbuVJ4lKAjuFbHp1eWU5kbOZOAzDOJMFpxgbKMPAcunEaiSWERQzRwMALDqgaKaGBiYKhXgstrIWAxgACKQ4k8PlDvrdtZJfFkjX86nYWla12OyGgeVT8UROpnjrVjCwYiG/Mj9jDXS4bGaWLtU0Hk1pS0SEioXC+Njo6MhoJBqXNa2yH0NIV8X8ymoknSmwNI3ryujYxFo4Wno2oabKmfja+ORsMpMnSQIp0tjoeCKZ1krOSCwKhbWlhXRBwnBCkYqrSwtjU/PFolTZGwm5TDwaSWaKNM1wHMeydLmGms0kEolEoaiwLMuyLE1ReE0zNlLx6MLc3HI0SZI0UuVoJDK3uLJZ6Zu6puVT8dW1SCKdM/6SS8XD4Wg8ld0kjX4LoZBfWZhPZQuKptdKZklmqmuyWBQiWd3B4boqJ7NFv8NU8U/SLG9zurq7O5ViZnxmVRZFhEqNrIjF4sz4iMlR19Lc0OBziKIgCpcxgBRVI6hShxwcxz11wdbmOguFVpeX3//sSluT32zmKlsT0Azrtbg6OtsZmoSwkgAcy/F2W31bWxAYAbxaplai1dW1bK6wZ/8Rv8OEIWV1NZJM53UEsK0WOfodpaROWchm0om4va4p5MQFRV5dDfsdrRX/ZDGfzWSyuCYUMgmSM5ksltKXu6qqppJJe1sbz/M4QbAs37trF8OZqPLmDYhhGI7hNEsxHA+lvKJomg6IimaOolBYXEnTep4kSJfHEwjUMyWbukEhl4mkBCQmIUb46uo8Lhdes76PJEnRNGA1myDSCoKIk6TL7dxc00onYqlMRsrGAADx5XmFtHAO76Zq9BgppSugVDK5vLxMM15AYIlYghAUubOFJCrcBkIMEhCnaFpjeSAUNFXVdFSiMISQpmk4hmFGpBzDOJbDCaKyQR9CCDGIdA2ByhdNEEKCICiSIkmCwPEKNIEYhhMESVIQw/GqM6TvAyGEAMAgkItCLBaNxpIQI73+OrIGeZoVAjEMJ0iKogAABEloWylvuOZsbGC6KqfSmbVo0tPoLIhYIZclZDWdKzqtXGWeFopmObM11NKsyOLKZ+eEfF7RSjUwHMfNFotQFIqiqGm0IsvLS8sOj8ditWLlDPvGaRdJLBYFAaP5ygzj7uvQTpe5samBpkiKoonyd1AMw/G8u7GxHkJI0XRNTQzSNIXjIJ3JWglVleXw2lqhIPfv2UfU4KRBhXAms83pDoUaAQCkkovkarbh2YJs/DGlfEYQJY3k3TYTy3Iuu5mjsIWVqFqpqwPDcJKkGIZlWRYgXdM0XS91AqFoOtDYmIjFYtFoPp9LJaJfXrkWjiZKlwABAABpqiKJYjwSiaytWf1BmqEqXpVhGEZSFMMwDMPgBF66Jnf1gThBsjxvsVjMZjNNUTXt99Bpt7AMOT2zoOF0oCHo97rJzd5+kSTFm0xWq9VqtZp5jiSJLZLcCO8kNdZSmY1nsEw6TdFs947+7o4GAEChzrUWjq3Fo3prHSDL22xACDGcBLq8sjh3Tkirimxx+T0+H0OWOmhTNFvX1BHP3o6tzIeX5iAGA6F2t8tJlbx/wgmCopmVhen02gJF4hxvOnKg12Iqw7F+LwRJ6Zq2tjJ7qRAncIy32P119c1BX+kSSIpmWUSXuW0rHV+gUYfE5PT8l5ejACAEiYa2dgqvSTJ22UAICZrhOJy+e76OoBmOhQxd6vmdxwpOkBxvpikCq13rbPxdOaszwFhwmuc4DgBAER6c5ricSBLl9wmIUby1u7tLKIokSSCEeLPV4bCXHibGcIzmzC2hUDaXlxQFw0mr3WG1mEr3vPFma0tHtz0vQQhJiuR4k9ttL9NH8hVmu7OpFZpcBYoiIIA0y1pM5Z1Ksrm8jEXFqcd1lonheG9dPU7SoiQjACiatVgs+CatDzGcsLrrWsza+tktm8tPmDWCrvZkU00wWawtHd2s3UyTNTvttrGRmCw2HoD148kExdjslNmq4+V3SgghQfNNTU060g0XA07gZY4WEGLQ5fHaXW5d1yGGlZsFQrOcL9Do1nUAIIZjOIZV4xZnTWY/y3v8+rpy5Z47NpltPECPb0KBGG4yW3iTSVU1ACCOY9WfNK9CGYy3OlgLWj/GwVvtLAJbpOgDw/HeehZiWA3Pa29sYNjXejCGVf6RIIREmQvLB0rBcRwv07TWFcCJSiesB0jDcKKqw72w9Om7ml+BGFnyOvyxAn/7LDTcSkejjRG/tjK3RKNvs83vKtsGts02j5FtA9tmm8fItoFts81jZNvAtimP7ULKpbB+uoMAABAEoapqJpMxaoZWg6pqoiQCACRJqt5XVxAETVV1XcfxMhItKnvqYRQFAem6IstVytF0vVgsptMpSZZL938ihHRd0zWVJCmK2vxobD6fFyVJkqSa50xWQ76QxzEcoS2UcqVpuqzINEURAACbwwl0nSJJuuraqASpG4EgiqKq/wYIAE3TWIYpKypQ2VMPgzeZKIqqvmVkRU8I8ts3RaimgSYivaSxDBIsZ7Y2eU2H3TX4OtXD8zyOExRVxhHyJwDP8xiGbYX2WccY3wkjG8NqtUlikeM4m81WpVxN0yRZBgDQFFVZnOpeisWipussw5QlqrKnHgbEMIqi2KqLqBZErRDBPp6zyGszampGL6ZKeYp0dXjbDhzlbMdYm822+R0IJwgCx2ma3sRo9dcx6rTz3Baq7KtpmiiKulE6m8AJFcNIkmSq7kbq3UUmTdNEBblUv42u65qmlSuqsqceRlEUaZquvmUUgBBNJAmYC38oTp5Rk9OlPMV1f5tqfalI+gjaxDCbH5KVZdm4xqAmg1etkGQZx7Dqv1EN0TRN1TRVUR5Xjuk2D0WTkVpESqGUf4s0aft+pn/TbBvYkwcBhECpO3K07bf7N82jDAwhJAhCPB4vFoskSdpsNqvVWvG6S5KkVCqVzWZ1XbdYLE6n88nsSnVdFwRhdXVV17/q0xiGMQxjNpvNZnNZb1QsFtPpdCaTWf8LhJAkSZ7nrVYrTdNPJm8VISSKYiqVikQiuVwOwzCLxeJ2u10uF0EQNdHBODwOIcQemQ+taZogCOFwOJFISJJEEITVavX5fFarlSQ3ze2pqmo+n19bW0ulUoqiUBRls9n8fr/JZKrJxqF0HvVjqqrOzc1dunRpdXXVbDb39PQMDAxU7AiJx+MXL16cmppSVbW9vf3AgQNNTU2ViSoLVVVXV1d/+ctfapoG7laVwXHcarU2Nzd3dXU1NDSU3iOTyeS1a9eGhobWux2O4wzD+Hy+3t7exsZGi8XyGF/mLvl8fnZ2dmho6NatW/F4HMMwr9fb3d09MDBQX1/P8xUeb1tHUZRMJpNMJj0ezyM6JUIomUyOj49fvHhxYWEhn89TFOXz+fbs2bN79+66urpNsTFN02Kx2M2bN69cubK8vFwsFjmOq6+vP3DgQG9vr8/ne5IemkcZWLFYPH369D/8wz+Mj487HI7Dhw83NjZardYKBkhd16empv76r/96aGhIFMWjR49iGPZkDEyW5ampqb/8y79UVZUkSeOTQwh1XW9ra/vmN7/5J3/yJyRJltjoKysr77zzzs9+9jOKou69Hokkyddee+2NN944fPjw457EEEI3b97853/+53fffVdVVYfDIctyPp8nCOLb3/72D3/4w56enir7UCwWO3fu3KeffvrjH/+4q6vLbDY/8J+pqvrll1/+7d/+7blz5zweD8MwxWIxmUy63e4//dM/femll/x+fzVqVEY+nz9//vxPfvKTpaUlm83GMIwgCJFIpL+//w//8A9ffvll7gn6Gx9qYLqu53K5ixcvSpJUX19PkuS1a9dWVlYaGhoq0C+TyczNzU1PT7e2tkYikbW1tStXrrz66qs4jlfQHQVBuHDhwsrKSk9Pz86dO6mNrp/UdV1RFJ/Pd+rUqX379hmLn08//fTWrVtnzpx5+eWXm5qaWLakwpcIIVVVeZ4/evTo0aNHHQ6HoijRaPRnP/vZuXPnmpub9+7d+1jdWZqmhcPhN99889KlS6FQ6Pvf/77f71cUZXBw8Ne//vXp06f7+vr8fr/L5QIAKIqSz+cLhYKu61arlef59bnIuB7OCB9BCFVVNW5kpCgKIXTjxo233377xo0b3/rWt5qamjiOe6DbMBqNDg0NjY+PDwwMfPe7362vrw+Hw+fPnz99+vTVq1fb29t9Pp8hGcdxYxRDCEmSZISJaJpWFMXwPJMkWSgUjGHCYrGwLJvL5XK5HELI0Lz0fjIzM3P58uWVlZWXX3756NGjXq93eXn5F7/4xfz8/K1bt/r7+7u6umRZ1jQNx3FjlNQ0TVEUXddJkjTyLgytaJpOpVKiKBIEYbfbCYLIZrOFQgFC6HQ6SxmXH2pggiAsLi6Oj487nc5gMCiK4ocffjgyMhIKhSqYeZaXl8fGxkRRfOqpp6ampmZnZ0dHR9fW1rxe74bm8XVEUbx69erNmzdxHO/u7i5RgsVi2bVr1wsvvGAYWCKRmJ6ejsfjhUJBK7O+CMMwbW1tJ06cqKurUxRleXn5o48+Wl5eTqVS9+70HgeSJF2/fn1wcBDDsBMnTjz//PMWi0XTtPr6eoZhjCbFMMxIzbl06dLk5GQymUQIOZ3O3bt3d3V1eTweAMCZM2dWV1eDweDJkydxHDc6XzqdPnLkSDqdPnfu3NWrV8Ph8Ntvv60oyt69ewOBwNeVKRQK8Xg8nU6zLNvU1NTT0yPLcn19vdfrDQQCNptNEISJiYnBwcFgMNjX1+fz+URR/PTTTyORSFNT08mTJ6enp4eHh4vFYmNj49jY2NraGkmSjY2N3d3dw8PDS0tLuq43NDQ899xzpXeVdDodiUSKxaLVag2FQu3t7Z2dnRzHjY2NdXR0sCwriuK5c+cWFxebm5sPHjzIcVwkErl27Voqlert7d2xY8eNGzeMvUxTU9Pw8HAsFmNZtq2tzel0Tk1NraysYBjW3t7+9NNPezyeR0csHmpgqVTq5s2b0Wh09+7dBw8ejMfj77777vXr13ft2tXY2FjWtIMQmp6eHhsb4zjOGFGy2ezi4uLNmzcPHz5cuoFpmibLsqIoqVRqbm5ufHy8v78/nU7rul5KsoXR5yKRCLi7CWZZ1mw2WyyWcje+mqYZfQvHcVVV4/G4rus+n8/tdj/WAJHhsLl69erq6mpXV9eRI0fq6uqM/9Td3e1yubLZrMfj4TjOMJJf/vKXiUTCGKTT6fTs7Ozzzz9/7NgxjuM++eSTwcHBgYGB48ePYxg2Nzf3/vvvz83N+f3+fD6/srKSSqVkWb59+3ZHR0d7e/sD9aEoytihLS4uXr58WRAEw7TeeOMNs9nscDgEQRgeHv6nf/qngYEBr9fr9XpFUfzoo49GRkaOHj168uTJiYmJt956KxwOHzhwIJVKzczMJBIJs9l86NChRCKxtrYWjUZJknQ6nUeOHHG7S6r4zXGcxWKBEI6Ojhqv43a7+/r6du7cabVabTabJEmff/75xYsXjx071t/fbxjYhx9+ODs7+53vfKejo2NwcPC9994rFArHjh1bWVmZmJjIZrN+v7+9vb1QKCwtLUWj0XWvycPWzwYP7VjRaPTChQuKonR3dx8+fHhubo7n+aGhofn5+QMHDpAkqd+95tmY/R/xG7IsT05OzszM+Hw+ox9MTEzMzs5++umnvb29xs2fuq6rqoph2CMWjYVCIRwOR6PRVCqVSCSKxeLa2trt27ctFovf729oaHj0fB2JRN55553h4WFjlXLr1i2TyfTMM880NDRQFKVpmqqqCCGCIDZcuOZyuQsXLkSjUY7jJEmKxWITExOvvfbarl27jPFC0zRd142SiY+QUy66rhcKhYmJiVwuZ7fb6+vr1/8Tx3HrKwtFURYWFv7qr/5qZWXlxRdffPHFF3Ec//u///vTp09LktTc3NzR0RGLxRYXF1taWow4myAIa2trS0tLhUKhsbGxra1tcHBQUZSnnnqqv7/fWHB+Ha/X29nZGQgEbt269dOf/jQYDHZ1de3Zs+fgwYM+n4/juHw+n8lkjLnCuLxb07RoNLq0tJRIJIyWXF1dnZ6e9vv9P/7xj8fGxt56661Lly5FIpE///M/Zxjmk08+efPNN8+cOWNMIKqqappmfKOHfe6mpqb+/v7333//888/HxoaMubD/fv379+/n+M4lmWLxaLx+vF43Fi8SJIUDoeXlpYymYyu68YInsvl9u3b953vfOfy5ctvvvnmF198oWnaD37wA0mS3nrrrY8++mh4eLi5udlkMhmfmyCIr6v04M8vy/LKysrg4KDD4WhpaWlqalIUpaenZ35+fnp6OhqN+ny+cDh89uzZVCoVCoVOnDjxCO/w8vLy9PS0LMuHDx92OBx2uz0UCn300UdffPHF9773vUAgoGlaPB4fGhqqr69vaGhwOBwPlDMzM/Pmm28aO/twOCwIwptvvvn555+bzeY33njjD/7gDx49iUmStLa2JsuysUTMZrMQwkQikUwmHQ7H5OTk0NBQIpE4ceJEKBQymR5VG1xV1WQyOTc3R1GUMRmqqhqLxeLxuCRJOI7Pzc0tLy+bTKb9+/c/Qk65GDtAQRA0TcMw7GHWm8lkjNd56qmnnn766YMHD6qqKsvy0tLSxMTElStXOjo6HvErgUCgqanJ6XTGYrH9+/d3d3c/7IvQNP3UU0+RJPnmm2+Ojo6urKwsLCycPXv2zTff/MEPfvDcc8+VuB31eDzHjx/v6+vjef7GjRu3bt0aGBjYt28fz/PLy8sAgGQyKYriwsLC4ODg6OjoU0891dPT8zCzdzqdJ06cAAC88847k5OT09PTk5OTH3/8cU9Pz/e///1Tp06VohKE0OFwfOtb3+ro6MjlclevXl1cXDxx4sT+/fuz2ezY2NgHH3yQyWQEQUin04uLi7Ozs3v27AkGg/dZwYO/UCQSMdaaNpvtyy+/zGazsVhMUZRCoTA5OWlszObn55PJ5M2bN2/evNnV1eX1eh/Wv4eHh+fn5wuFQjQa/cUvfkEQxMTEhCzLs7OzU1NTxh56bW3t5z//+bPPPutwOB72Oc1mcygUOnDgQLFYvH79ejgcbmxsNHxcG05fAAC32/38888bPV7TtOHh4WvXrl25cuX9998/evRoIpFYXFwcHR3N5/PGOuERogzLOX78uMPh0DQtlUq999578/Pz58+fD4VCra2tRrMEg8HaGhiGYRRFGSEmSZIKha/SQWRZzmQyoiharVbje+XzeWNVZjabFUUJhUJms3llZWVlZeXRv0LTtJFohmEYz/MMwzzMkjEMc7vdhw4d8nq9s7Ozxvg7Pj4+Pj7+zjvvOJ3OQ4cOrf/jR6SkMAzj9Xp5njebzQzDkCTp8/ksFgvHcRzHGT4YQRAghEtLS+Pj4+l0GsfxI0eOPFAaQRB+v//kyZNNTU1zc3Ozs7PT09O3b98eGhryeDw+n6+/v//RLQAAgBAyDFNXV2c2m3meN7LD6uvrbTabpmlGIMTwhSQSiatXr164cMHn8wWDwfuVeaD0+fn50dHRYrFos9muX78+PT0tiqLh/Jmamrp165axNWxpaZmampqenlYfcs7FmCuuX7++srJiTDsffPABhmHRaBTH8VQqNTQ01Nvb29bWBgC4detWX1+foigPe2ePx3P48OH29vZUKpXL5WRZ3rt370svvWQsETfc/Nhstn379r3yyisAAF3Xg8FgOBw+ffr0+fPnjVVQXV3d2NiYMVg+WhTLsl1dXadOnaqvr9d1PZFIRCKRX/7ylyMjI3Nzc+3t7caoVvMoEIZhHMd1dHRcu3YtkUjMzc11d3cbrrloNHrp0qWFhYUDBw4YuwKE0APXFPf+Udd1wytjLHLK1cdYVQqC0NnZ2dPTY6ysrl69+jd/8zejo6NTU1MHDhwwBr71FbjxQ/cZmzFwrF98YbymEWlc/yNCyGKxBAKBiYmJdDp97+ByLwihpaWlxcVFSZL27NnT398fi8WmpqbOnj37r//6r+Pj45OTk/39/RBCQxljiaiq6tdf39j7wHtgGMbYPqy3oeGBNJYM2Wz2623+AAPTNG1ycnJ0dJRl2VAoZDjlGYZpamrK5XLhcHhkZEQUxZ6eHrfbvba2RlGU3W5/YP/WNC2dTg8PD2ezWbfb7fV6jZ93uVwQwlQqdf369SNHjnR1dZWSgmCxWCwWS3t7eywW+/jjj1dXV1tbWw8cOFBibNdoUMOAEUIMw9A0bawVeZ4PhUKqqi4tLTU3NxvbwkdjiDJ2oRBCnudxHJckSRRFhmGMrI6apxFCCDmOGxgYOHv2bCQSuXjx4q5duziOU1V1aGjoH//xH0dGRgiCOHr0qMvl4nne2LLm83lFUaanp3O5nM1mCwQCRvYJAEAUxUwmY3yme7uskcCBEDK8SoZD/+v6TE1NvfPOO4uLi7//+79vLJC8Xq/T6fzFL36RTCaN1biRel8oFDKZjLH5EQRhQ2P++i0zhqOSoqilpSWSJL1e78NGkJs3b7799tvJZPLP/uzPWltbW1pa3G43x3HGFrRYLEIIjeCEIAipVMpms8XjcUEQSmn/+/6C4zjP8w6H42Hj+wMMLJfLTU1NLS8vd3R0/MVf/IUxORh95Sc/+cnp06cND15vb+/Q0BBBEC+88IIgCA/MHhAEYWRkZHFx0e12v/rqqz/60Y+Mv8uyPDQ09Ed/9EeGt6OUd7vvrTweTzAYtNlspUdUM5nMjRs3jDiPpmmXL1++cuWKyWTatWuX2WyOx+ORSMRisRhrzod1KQNRFKempj777DNj251IJN59991YLLZz585QKFTWu5QLTdP79+8fGBj4zW9+86tf/UqW5Y6OjnQ6ffny5YsXLxoL1NbWVk3Tent7R0dHz5w5Y8wGP//5z6PR6PHjxwcGBjAMM8bElZWV8+fPezyeixcvzs3NrQcDDa+sqqrz8/PBYJCm6QeOYiRJJpPJL774IpfL/fCHPwyFQtls9ssvvzR26V6v10ihoGl6YWHh2rVrDofjzJkzCwsL5cZFAAAQQsO9mc/njxw54vV6DW/H1/+ZESq8dOmS0+k8depUY2NjLBZ77733kslkX19fMBjEcdzv91MUtbCwcOHCBUEQPvnkk9nZ2ceRu/cAA5udnQ2HwxaLZWBgoLm52eFwrBvuoUOHpqam0un0hQsXjO1sPB5vb2+nKMpisXzd4Z7L5S5fvixJUn9//759+3y+OzWljSzHgwcPDg4OLi0tTU1NGQE+QRCMqOijzcZkMr3yyivHjx+vq6srZRtNEATP8/l8/pNPPrl69arxOoVCwZgNXnrpJYTQ6dOnz5w5I4piPB7/7ne/a7VaHyjKiMzquj40NGQsAo2kkHQ6fejQoWeffbalpUWWZUEQjLE/n8+XFSTdECPt8NVXXzWZTF988cWFCxcuX75s+DwOHTr0+uuv9/X1mUym5ubmP/7jP/71r389MTExNzeHYVgymXz22Weff/55I6J1/Pjx1dXV27dv/93f/Z0xG9TV1RnJhACAhoaGnp6e4eHhX/3qV4qiPPvssz09PV9XprW11XBkj4+P/9f/+l95nlcUJZvN2u32l156aWBgwGQy9fb2Hjp06ObNmx9//PHMzIwRFzHyYAAAxiEpI+a73rwcx62vGI08T4ZhRFG8dOnS22+/vbq6GovFXnnllYc5Ofr6+k6dOmXM8OPj44anNxKJNDQ0fOMb39izZw/DMMeOHRsZGRkdHf2Xf/mXixcvGpEAQx8IIUVRLMsyDHNvNhzHccYiy1jQ8jxvDNbGKsCIoIiieF8axgMMjGGY/fv3Nzc379u3zxdz79UAACAASURBVGq13ms2e/bsyeVya2trfr+fpmlj8vX5fDab7YH7YJqmA4HAyy+/3Nvb29XVde+exO/3v/766+3t7YZ9kiT50ksvtbe3l5JRQZJkW1vbnUOjG/nBSZIMBoM/+MEPjD2A8Uccx1mW9fl8PT09nZ2duVzOCEriOG63242N9QOlud3uI0eO3PsiRnObTKaenp7+/n6LxaIoSn19/cDAgMPhMH60tslTRnidpulgMDg1NZXNZgmCcLlcbW1tAwMDRizOZrM9/fTTLMtOTU0lEgmEkMvl2rNnT1dXl7HW2L17tzH7FQoFj8fj9Xp3796dzWYbGxsNyc8++yxFUYqiBAKBhyU3OhyOQ4cO4Th+9epVY02I43hbW1tzc/PTTz/d2tpqpCYaHzqZTFosltbW1lAoJIpia2srACAUCj3//PO6rgcCAYIgbDbbgQMHeJ7fuXOnkXfS2dn5ve99r6ury2jMYDBo+D8sFsvDRuG6urqnn34aw7DR0dF0Oq0oCkEQHR0dvb29R44cMdKSurq6Xn/99du3b+fzeYfDYYQuJEnq7u4mSXLHjh2yLNM0bZyVrqurM0bzxsZGhmFsNtuuXbt+9KMf7dq1y2q1IoQaGxtPnTplTKr3KQMRQssrYbFYsFjMRow/m80a2zWr1Woyme59DVmWk8mkIAhGHMzYsFIU5fF4KIoyEgiMcIfhhpJlORaLybJstMi9/VJV1Vwul8lkjNWIkZllpMmst53hj2ZZtqxo0n1P6bpeLBbD4fC9OyJjpDSZTMZXNJythp+KYRiHw7Fu56l0mqZp7u7/NYarXC73VQtCSJKkEbM29l2KoiSTSUmSSJJcT/PJiejclPw//UM6d/mnxfFfq4mJh+lvWKyhPNv9ncaTf3pyd+B/fZpvcP7WKt/YIBmeYmMn8PWIudHI+XweIWSz2YwxeP3xYrGYy+WKxaIxpQiCUCwWnU4ny7IYhomimE6nJUmyWCwmk8kYZw1jvvfA5XrzRqNRQRCMlKL6+vp7P7eROmycybDb7ZlMRpIkhmHcbnculzM6mzGuGf+yUCgY3cBYFiYSCcOdKIpiNpsFABjb/vUIbyabxTHs3siKkeO/urpqnAWhKMpwYt2buLz++jzPcxyXy+WMl7VYLMYnxjDM5/PhOF4sFrPZbLFYdLvdLMtqmpbL5VKplKGzqqqpVEpVVSPobPQcTdPyhYKqKA8wsGq4z8CqlFYTA6uS+wysYko3MJ7nfT6fxWrDMIwJPec/8KMDXd439rP1tsovMasVXzewrcDXDWzTWTew7QOXW47GxsZvf/f7pob9KqAR46StTiuHDS0pooIaHDhFbLaRbVMO2wa25WBZ1uNvGNXb40VaymEwoWNQwjHw6m7GY8Yf20Vi2zwWCHBPiL22cZuaSEMViarsqQeLQgggVANR6M7hf4y24mY/UosP+4eEpQ5Q1rE1fCEDi7IOwJ2Q0Z4GUlZ1hDa5nFMN27aGoC2m0royBLgbxTecFlXKXU8IqF4UAEDTdaTrWpkZBpU99TAQQlpNWkZHuqYBpBP2Fjp4hHA+NBWLDjTiJh+A929ydKRrmqZpm9mNdISgrmuatqV6cw27XK1Yz1YhAAC5bBoAJIpkPp+vXq7xnoqiVH8wWzGSa3T9/qj+Y3jqodJkWdf16mse5yVUFBSkFEhPD+FsR+ihvYFt4nG7B2Bofe4ykGWlUNDoTb3OWJJlDMMURanhJavVI0sSxDD0mE/ilYWOkKZpGIQEAMDhdAiFguFrrlLuei4SSZLVO5qgJOmaRjMM9rXEmZo/9TAUVaUoiqk6xq/qIl5YKFz++69n4t1Hsdikdn4D6A333RxAEATDUCy7mUtEHSEcx6mSKyw8GTRdxzCs+t5bQ3RdN86MEwAAnucVWSYIooLDxfexnjRpZGZUK03TNACoMm21sqcehhHLrr5lSEnGxLg0/Z52T7z7gaTxjpUJSyFWkPOEqgCcwM1ms8vp8loJlqEoajN7tihJBI4bMc9NVOM+CFHEcLz6b1RDNE2TFeWOgd2XtlwN60JqI+1uemVZoip76qHSatUyAAFN0gsRTVEebWDxFezaxTOR4nRexFUd8LyprrPzaNvRLj/JkFXdKF09tW3bmgEh3GIqrSuz7fTdcqyurq6tvYUABABAADivt7Xlm/9uz0CohdpKXWibktg2sK0IuuvTRwAApEOAMAi2revfIiUZmCwKiVhkYnJKUoHL6w8Eg15n5fewJGPhpaWlSCyBkWxbe4fH7WTpJ1ieEiFFFudnp1fCEVXHnB5/R3sbQ+KV3cejqXIiFp2ZmUnnBJvTGwwG6nzuLeVhQ0jPpVML87OrkRjFWeoDwcZggCY3M9GpmM+sLC8vLq9IKmhobg3Uea3maiulVk8mGV9ZWVpaCeMk29QS8vs8PFuD0ysbGxjStdWlhaHr12ZXoggAenYhFE8dOXyAZ8hyexJCuizkbg5en5yZzRdlhEA0kd2ze2dbS7BcUYb3nKBovEzDkIqF8PLc2XMXsoWCpgOzdaGowB0djWa+Eh9UdHVp5Pat4bEZBBCGT8c7u3Fyr9/14KMum0Ihk5yaGLv45TVZ0xCCq+GYpIAdHY2bpA5CujYxcmt0bGItkQYIzC+t7tm7t7enk9vUFBW5mBsfuTV8eyRbFBGCq9FEX1/fju7W6rM/N/YFqVLhxrUr733wsauhs29HV2xp5tPTH86FU6pWdthBV9XY8tRHn3y+sJbu7dvZ7Dd/+P57VwdvFpWyQ4TJRGxtbbUob+CRe8CDsbUrZz8+Pzjp8jW2BL3RxYn/919+E4klK4mb6trwtcvnvjgrYJZ9+/eLqdUrl85fuTVVgaTHx+L02JcXzg1NRXfu2ucy4aPDg+99fFZDm3OjBEJIETKnP/xwaGQyEOrct7v7+vnPLl++Ek7kNn74cZJcm//i7Pmb4ws7+veF6h2Xzp89e/6iINcgcr2xgSVW5yLxFOFs/r3njh06fOzoQL/XSp+7fEOSyr5VVZLEaxe/4By+XQeOHjl08JkXXwta9FR8bSGSLlfU1Qtn3/vNb5ZjebW8zAa0trZ64cKl4889f+jIkRMnTz515NDt8x9FE0lJLXu8UMTM+MxSVsK++51Xdu/e+60Xn3FaTefPX9xCOQ4AjY2OhKPxb377O3t27/69b36r0e+eHLqcETVN3wQ1NUVenbkdE5C/pevUyeP7Djz19P4esZAdHt3kUWn4+pc6QfcfPHb4wL5vPP+tkIcrJNemVxLVS97YwOKRiCApVl+dzWLieb7e57Hw7PT0glJ+coOqqnPTM7TJ7Kmr43neYnXUuSyyIEZKNjBd18ViURCEeDwWDq+ls/mCIMiKopfYXZCay+Xn19LBhoDDYbfanA6nmxDimUyhKJU9XBVz6XRR0WhzvdfBc1xdIEgTRHRxUd2k+eEB6EoknskKaktzg4nn7W6fhWdRPhVPF9XyB5Tq0VRtdWER0pzN7bWYeZbjmxvqVFlZWYk8eWXuZWlhAeCkL9DAc5zZYve5LFBTV2thYBsvfHP5gqzrnMVirEZZniFJIp1I6xUsEXU9kUrbG2mG5wAAAEKzmS3IaiFX0m10AKBCNn3zypW0KN+8NbIWiV86d2bZbWrt6m0IBhzmEirm67ooK6miauI5kiQgDgmSYjFFkmRF0QAoz9ciFQsSgohiaAKDANAch0Mo5XMqAjjYGk4/Xc1LiqADi5mDGMQwiiJwAih5QdLsm3AfpK7ryXQa0jTNc0bzmK0mTVPz2Wpz9Koklckhh4uzmAAAAEKeZ7F0PpupgVYbG5iGdB0CgN/tLxACCCq70R0hpOoIYRCueyYwCEDpueoon8tcP392KVu4PTqeyeXBhbOTZloleavDVZKBAYQAUKHxEneAmKFB2bMOQghBgL7yP0IAEEA6QmBTEwbvASEdIB3eE4SFAEKk65uTq4sAUhFC8Kvh525Ftk1OI9SQjiCE6+kpEKAaabWxgZkYmsGwdPHOjkuVVF1FDM/B8v3aGIbZeQ5TdU26s7yUBQXDCarUTD/o9Phe+/c/llT91//jZ/NLa898+z+21lldbrflkfXB7xGAUzhuw6CqqLqOAAK6pokiRpIEUX5eFU3RNAJFRdYRwCHQVUVHECMZAtsa0xcAACc4HOcBUBQNIACQrqlIUXGGoSoLS1QJhmF2nsVUUZPvVL+UiwoGCWqzr1e2smxOB6p4p5Mrogp0jK5FcuPGezC3z08ReGx5UVJ1XdfD0Wgml21tayLLTzUkCKI51JxPp6LhsK7rmlJcDCdwmvT5H1zK92tAkqQ9dXX1wYDH43a5nP66+kAwaLdaKLI0ZTDcbOIb/NbFpbVcXpCLuVwmKdBWi4VnmbJfh7U6zDQExUwkXdB0FFlbllTZFWwg4FaZwAAk3U6LiSVm5pcVVRWyiVyxqLEWj50l8U1IJiQIor6pWc5nU9GorOoIodmFRYzC6wO+J6/MvQQbg6osrS4v6QhpirgaSyoABQMl3TXxaDbuVTZvvdftHJ2Y++Djz2wsNnRrsqARx/q7KKrs6DBFUT27B8Y/ujg2dMVCiHIunlToNq+/ruTAEcQwimYAAF29O911DXVuG8+x5YTCMI/Xu3fPrqErFwg5w5PqzNRUz8Axt9NOE2V3OJKxhJoC6XT6/fff72zyj9/4siDre/fv2UJpsBBra2uLJ9PnP/2QLO7ORBbCyWzbjt1Wlig3flgTMJzwNLR6rZfiyzMff3bGxmI3Jpb9bX2drZsVl7tDe8/OybVLU8NXzzpoOR9fy6jB1roGX+XZFOtsbGCcxdXe1hpeWb5547qFxbNFVNfQtrOjqdRJ494fI+lQ966Wkdm55bXBwUG5kA609ba1tTvMZa8QOnt2KKrGm5lyI9Rub93AkeOzv/5wenIU6JqiaC9985telwMvv79Bgurd0SsIws3RYSkVXgunG0Odh/buLFvQ4yTU3p3K5Oc/v3RrGE8nYhaHv3/fEbqCt60FGI6bnfW7dnTeHp8aunHdwuCIdYZCbaGgd1P0WaehrSc0vZS9NTp4Y1DOp+z+xs7uHW5LDZaIGxsJxIienXv9geCt4eG8hOobmluam2xcJUcDIIYxFte3Xn1tbm52YXmVYG19fb1uh72Cz22yVJgtwVnsnbsO/M921+TMnAKIumBzT0crUeF6CbZ07rS761omx1fCqV37Dzc3NfncJS53nxB2b+DgMXOgsWlieq6rp6+luaUxWL/xY48LCHHy+LMvhDrnZ2bmchJ65sW+QJ3XxGzadekGtMlx8rkXOrq7J6ZmCK63s7OzzuepySRf0iyEk5TD5dt/yKbriKRourqDN5zF1tbV2xjqgBjOskylnbtycIL0N7Q4fAGEIElRBF558iCG4VaHa8eufZ2KSlI0RW29hHcIOd7c3NZV1xjCcIIqP7ms5pAUG2gMeXxBDSGGYStYCj0OWN7cFOrwBZogRjA0TdQoXbOkd4MQEiRlJmtzoA3HCZYlNvH4KYSQohljL1e9LIIgCWKTB+BHg+E4w3IM++Ru/n40EMNomqFr0v61A8NxGmdppsb9cgttyLfZ5ncPAtw9579+VVQ1rBecqI00hHRdN+qHlH5etbKnHgZChriatUy5Khk3WdWkPatnXZMtdXwYIWR89M1W5Ct0XQfrVaWi0aiqqhDCbK7apGbjZiAAgKKq1X8DVVGMtitLVGVPPQzjdqwKEi/vI18oiJKEYRgoM6INMUxRlHyhUP3XqR5ZkjAcV1V1y4TSAQBAlmXjjpvNVuQrDEOAhoHxPF8UBKPmeJVyDaEAAKImNWcQ0nWdIkmIlVOLorKnHoJxN0f1LWPcPILuUvqDxjXzxhUZVepQPcY9Q+RWqyqlacZtHputyFfoui5JEjKK3hi3WhAEQVV95al2tzxdTYo6aaqqaRpJkhhehie/sqcexp2qUlW3zHqZrQ3Ltv0WECKEMAwjSbJ6HapHwnFi65Vtk3Acw7Ct0D7r6LquKopqGBhJkjiGYRhWvUkYvQEAUBNpxi2mGIaVlShY2VMPw7hwrfp3wTEMg7DsGQwhgBCEEK+FDtWDQYjVqKvUEAghBuGWUgmAO4nMW2gc2mab3z22DWybbR4jJQWadU0t5HOrq8uSAqwOp8vprKbgjijkE4l4MpXBKK6+zm/iuSeczKFrWjoZi8biKsBsdpff68aqKwSl67qQTRZVjGZYi2kLFXA2kMRiKhGLxBI0Z3Y6XU67dVPOqqyjKXIqlYjF4qIK6urqbVYzXX7i+OMBqYqyvLzqdLlMZlNN2qgEA0N6LLw6OT46u7ymI8Dytsbmlt07eymi/JI7CKmKOHb71tz8QlYoIgDrG9u7OtsCfne5kgxXAYaVrYMii6lY5PKXVzP5vKYDk9XR07enqd7NMhXmqWiams+krl38XGX8zaHWrWZgYiG3uDB3Y2hYlBUEcX99Y0dXd1N9DQ5iVAjSF2YmpmZm12JJhMDM3GJvT09LcwNV/mmGGuuFULGQXVmc//izK8e+8XRHR2tNrjos4USzKo3cHHz/vfcZf5ubh0ODQ6PjU3WNzfUOU7kzj65rufjqhx98EEnmGluahcTyl4PjL770gsftLPe0SCGfUxSVt9gporzZJ59OjFy/8ObbZ9raWwkgRYcGJ1cL/+61Z+p9rgraU9PUXDo5OXLzH//7/+PteuYU72hv3uSjTfcRW53/8vwXH5wbOnxoX3hxenxyOpyRG199ZnPiWAipsvDFpx+PzSyZ3PVuE/j88/PZQtHudnttm1waURQKCzMTZ05/8N/+5ay/OdTa/qQMLBtbml1YSiPL//kH/5ElwNkP3xqdnD935fYrJ/YQZS4UZUkcuvx5EXK7Dg9885lDmpT/L//5Py/NT68l+5s8lrJEXb1wdiUcO3Tq9UZPeXa+srT4+Scf73v6944f3O1i9aHBq//lr/+/Z4/2ez1OsvyFUzKycunCuV/86u21RNKxlQKdd0G3hwYXl5afe+33Tx3eIWdW337/k4uff/z6N08yBPbkz6xompJYnhxbjDmD7T/6/TcYAgLh/0rF1obH55450PuktbkXXb166eynn348OrMoyAKoXdWijbtmbHU1L0hWf4PXabfZ7E2BegvPjY5NGdcUlYWiKBMjo6zZWt/QaLPZnB5/wGUW88LKWqpcUfFYZHlpqSCq5VUfQ1o6k5mcWwu1hnw+r9vn93rrtNhyKp0Xyq8qBQBQNc3q8Bw58dy+vja7dfPL096Prq6sxVNZsbu7w2az+QKNNp6TEuFoRtycqlKKsjI7jQjW4a1zOe1Wm62jpVEuSvMLK09emd8C6RRnbu3s/dZLp2xmpoZBvo1nsHQ6Leua2eEwjjmYLWaGoaPzMa38qlKapq1Fo2b3DpPNAiEEkLDb+biqZDIlJgGhQi43NXI7Jys3h28vr0Vdl85FZs2NzSGfz2vhSsjO1rWiKEVykt1uYWgKJyDNsiwoCoIoyypgyz43wZmsLe2dnkATTA9nt9L1OXfQ1bRQzKvI5bTiOEYQHE2RuCZmcpLHTNFP3Ies6Xo0FscYhrVYjN2z02XXxuPpZNmFMWsMxAINzXaHA6q5/85QNZzaN+5SkqqpAOB3/Tw4gWEYUOQN7uB5IAihoqyYCQy7W8+DoHBU1NVSJ0OUz6Wvnv1iNVe4NTqWSueIc2emLMzBE88xJmtJBoZ0DSERANzw0EAAMUiSuqZVWIjTanda7c58Nkls9h79wSBdQUiFgCBwAACAGI4BHNcVZXPugDU6AMBx/O5pK4LEESi9Azw2MCIQCOiKfWV+vLYVVTY2MJYgKIgV1DsrKF3TkQ4IkqwgzQ+D0ERRmI7Q3et0NVmHAMdLPU8FeZOlb+BAsyQXsunVcGz3/sONHr65ucHClbYbxDACw3gIkXancBnSkapgOI5v+jHExwKG0RhGA3BnuYGQrgNdw0gS35R0+LsdQNHvLlA1pawO8G+PjQ3M6XFSBLYcDhv56clkuiAIgcaWCjJTcBwPBOsi+UImkQIggHQ9HEtRPp/LU2J1Ecjypu7+XaqOZkaHAUb07tzVGbSZTaZSbzeEBMcyfhsdi6eLdR4WA2KxkNFpk5llN/vU+mMBo+xm1kTBcDTlN3uBlhckWcIYl43blKpSOI77An759s1cKmUUyFwLR3ASd/ucT16ZJ8PGBubwBW3m28L46JUbt20cdnN0Kp6Tdh+opKoUSdE9/Xvmzo2M3xoKOGg5F1tOqTs7HYFSDQzgOGG22gAAXb07bJ66hjqv08GX4UWE0OVy9fV0XPvyIo/LVkq9PXLb37nHabfR5JZc41UJxFqaGqOxxNkzn1rAQCYyuxZPeVs67SbyyVdqAEaxhqZ2HrsWWZweHB6xs9i1W9OMN9Qe2uSqUo+PjQ3MbPe2NDfNz81fuXrFzuGriZzNU7+7u5Uq/74ZkqI6duy9NrqYjC5dvYrJuZjF19zU3OIuPwbS3tUbaBZdVqbMpATo8foPHDn69ueDo7cIEqrJRPrE8y94XY4KfPRfCcUw3mxTIL9lMhLWga0dXfF09sLQ2KCNSIWXIMXtP7iTq+ZtqwDDCbuvsbu1YW45fPXqFTuLZxSirbGprWkT6/DcC4YTlNvtYhm6Vu2zsZFgJLNr74DVZv30szMLcRDq6t+9e1fAZa5AAwwnbL6ml148NTg4ODo1R/K2V1451R5qpMqPyPjqA+X/PgAAWJ3e3Ye/oQLi5thETiNauvd84+TTZrYqwyAIqiHU64Jet6O0AsNPEH9T+0GSJUlyeHyCt/v29u/Zu2fnpm03IcQp/rkXf+/m0OC1GzejIjh+6vd27uhyW7dGvRAMZ3nbocMHfV53rUagkmYh1mRp795Z19CmI0DRNMMwVYz2sK6x1e6pP3JCgRjO83wFS81qgBjG8KZ9R07s2HcYAUhRNM9VW0eaopmd+59BgCBrVBeohmA47vHXP/3cSwePyxhOMAz7RO8TfRAWu3vfwad27BrQEWA5jqFrNl1UCYaRFofv+9//HmfiaxWFL8nAMAynGY5majPMkBRNUpt5+BTDcN5k5k01m20gxDi+vEyUJ8idimBbZ27FCaK27V8zIMQJ0uGsZWXL38Wd/TbbbBkIAICmaTq6Uz2pSnHrx3VrKK1cUZU99ShptajotN4yRpWoEp+CEG61qlI1bNtasQVV+q2qUplMVpIkgiBEUaxSrqbrRo4iAgCvOqNLVhRd1zFJMvrZY33qYRj1tqqXI4qioigYhKjMUjwQQk3TJEmq/utUj3p3LN5SNTlUVdUh3Arts46u60Z5NQIAcGdALbPa0YNZl1A7aQihskb9Cp96pMDq5VQpodxaVI8JhNB68262LveAEKrVt64R61+LAACwLKtpqlGOq0q5mn7n8kSCJKufwTRdh0Z9qHJEVfbUw8AwDCeI6luGJEkcx1H5prJeVap6HapHVhQcwwiC2FIzmCTLRhNttiJfoeu6qmm6phll21hJLBIEUWrC0cNRVVXXNAAASRBE+Tf0fV2aBgBRpqjKnnoYd8q2Vd0ydwwMofLKtt1jYNXrUD2iKBIEQdak6GXtwEURx7Ct0D7raJomybKuaVtoHNpmm989tg1sm20eIyUtohBCqiLnshlFAyzHcxxbTaqorqmCIAhCESMoi8VMEsSm1IdAui5JsqxqFnNVJ5FVRRYKhYIocpyJY1lya9x2dS+6pkliMZPLkRTD8TxLb4mllKapQj5PsTxBbM59tveha5ooFvP5PCQos8lE1+iqt1J6A8ok40sLczMLKzpCvMURbGjsaG2qqFGQrmmzUxNLS8vpfAFAPNjU1tQYcNmfdBoEQigRWV5YjggqefRgf8VyhGx6eXlxYnpOUTWK5Rsam1pDLdxm5yLdiyqLkbXVsfHxvCACjPDVB0OhVrd9k7MoNFVJRMNfXrzYtfeI3+fly7+BvrYgXV1emJufn09kcghidYHmxsagz+2o3sQ2fjFdU2YnRz/56KP5ZJGjoKTibZ29Xp/Pbio3kx0gXS/mkl98+vHo1CwkaVnIWvydp549eWDPDqLM3C9JLGqaTjEVzKVI07R8NjN4+ezFwSmdr6/cwBBanp88d/bcxeEpj9OWSmU7duyieVtH4ybfOHwvmUTkxtVLv37/U7fPm02nPYGWQ0/Bbxzp38QpQ1XkVCJ649qlv/7pT/+X/1Rvtjo23cCK+fSVi+cvXbkOWV4uZE3upiNHn3rm2AGy6pTEjV+smIndGhkbX8n82f/xv1to+Om7b84sTly+PXNiT0e5aaOKLE0Mnp8JZ0J9B19+/ricj/3kL/9qbMTd3tHusZZ33+GtG9fjidSOAyd8Dq6suVTXtGwy+s6v/senn38WzuI79lZeIRBp8peXv5ycW37j3/9hX4vvxtkPbs2GP/r8UscPX65YZs0ZGbo6Nj7WffiF108dyoanT39++d133z12cCdZg5tnKmRtafbMZ5+8/c4HY7ML+aKIalfCqWJmb1+bWgw7mnb8h++/Iudjf/N//7fbN67079pZZ682/7aEqlLLi9lcwextbKr3eTzetpYmm4kbujkmy+VXlZLlkaEbvNne2NLm8bjrGlobHFwhm11cS5Qraml+dmx0JF2Q9TJraaiKlM8k4wLs3dHd3dlcTXRSyifDsayEmL6uVpfL1dPbw5DUxO0RrYZVv6oEqQsLK4lkfvfuXW6Xu6Wty2EyZVfnYzlJKb9mUa1YWVmBJNe//1CTn6OpLeFmmxobhRjZ3N7lcTn9gZag26yJhZmlWPWSN57BksmEqGoWt4ehCACAy2k38ezE4opa/p10qqYtLK8wrc12l4vACYATHqc5JcuJRBaAUo7cIUksri0uFVVtYnJycTkcHBtR0laPz2+3WUucTjEM50yW/t17MXFh8PbiSqbcl/iKYj6TU3SN5l1WHofA4XZTJJ6KhFUEyNpWTqkYXU1k8zlJNbx9qQAAIABJREFUq6/3EgRBUjaepaGUS+UkO0uWf2K2Njhc3h6Tw1sXuP7xz8vdGjwmVtbCgK13eb04juM467Kbc1ExGk0BUO1R643bWBAlBSCKu1MRmqQIHIdCvljB2K/rerZQZCiCuFunmuYoJOhSUSpRgpDP3b52NS6IU9Oz0UTy5vUrUQe3Y8+Bdoop0cAIknZ4A097g4tjysjkarmvcC+yLMkYRBSNQwABIEgKA0CTiqoOSAxsCQtDWlHTJQBpmoQQAIjjOCQwrViUdaQDsDnB4taObgjh5Ojw1rmHNl8UNRMk7xbSpRgSwqJYqEFy48YGhkOIA6jdk2QIEKgsUwZCSBqFrtel6ToEAJa6iUKqqiQTsVhezOZyhYKQjMcIlcvm8mVc8QphrWYXHGI4gPC3WgZCsAVczl8BcQBxAO8uWhFAACCIYdgmTrFbKs3KgMAgurdBdAQAqMkVGSUUvbFbaRxPJNIIAAhAPidIkuL0OSupKoVhfq9LKEpCNg8AAAAlk3nM6raWetIeszncp15/Q9F0GtfmFlefe+177fVWu8POc5tw5pw1W1ig54oFUUUMDov5vAoQbbNT2Ja5wRgnrSxlIlA6I/h4StdlUdZERNqtLL4ZRW+2LB6nI6xp+aSxYUCZTEFHwO4utRbTI9i4lZ3+AM9QqZXZ+ZVIPB6bmJmPpXN9vR0VLOFJiurq6c0monPTE/FEfG1xeiGSYzhTvbfUM6QkRXv8dfWBQFt7R2dXd3NTQ7AhaLdaqM0I79Imm9vGEUpuaHQqlU6N3L6dE4qhzk58i2zAAACQCNb7rCbmypVryVRqbmosns5wnqDTTFfvgP5dItTerorC9PhIPJkKL88thNOIYBvrXdVL3rhfWl11wUDd5PTshYuXbCw2vRQhTfY9O9rp8pOXSZLq3LlvcObD1bnJS5cxORcHJnd9sMHnMJUrqqWtw+Gtd5jpim/2wjCCpmiGqbx4AUGbOtpC2Vzu8sUL6Sb/5K0JgjH17921lXoubG3viKXSo7euXeW0dGShqMG+PftN9ObnTuA4xvFmiiC2wk4s1NV3ey62tDJ9+fJlOR8XMbYh2BRwW6uXvLGBkaxp1+7dSJU+OPOxhkB9U+f+gYOdDZ4KPhFOknWtvUcGIpe/vPrRBx8CjDj2zEu7d/XzdNnzT0dPX7mP3AfFmtwer1JN1gXEd+8/iBHkex+enr193eysO3ho55G9PVUqVluaO3bIGgiH3/7ko/cAwe3ee+DkiRNbYfaiGS7U3mWzmjelBOp9eBs7DuxNahcufPD+uxAS+4+cPDiwz1yL8HcpIqDLFzj6jRd69x7SdMBwvNlkrnQAhBAj+geOhrp3CoIIcdJmt3NseSHmWuHwtT11LCirVfU1k8219+BTbT07i5LMsLzZZGbLHyweKwTNtHX3/YdAY74gECRtMpnN5rLXC48Dr7/+x//bf7K5/Cy7+bmREMM7+/YEWtpz+QLE/3/23jxIruO+88zMd9ar++7q+767gUbjJgARIgmSOqjRWNJYa9m6LIfHtmzvOmZ2d3Y3YjZiI3ZjPN6xLR9haaSVaEm2KMoSb0qUQNz3jUZ3A+j77q7quq93ZOb+UUATpAih6r0H1BPd378QiHi//lW+/GXmy/zl58e7XC673Zyv+rJ6A8NydqfbZndQCkpF5g38RWiT7IJoIwQDiJgK78+bKJaX3Kxo8EQYMYxkd4iShDFBDIOqW5v1/QQhEkRbQBA8Xlx6d1ZYkgEAOF6I1DcixFqjzaBgk3hBdHt8AJnZLcsdbiGEDGPa2Gw4Sk0QhBCacmsQQgQZhCx0AfGXBSHiLMYGhxCyFqv5ABFize6WLLhb79gU6gO9S2ugZmAbNlwilJY/nuh76ldbM5PJASEo2xqEENw5OLQGk+MubcIKztwrq7m04QwLAJBlWcMYE1LBce19RDAu0bOwphn/wZgQQoimaagSU/qeup9Kl/yNt0yphSGEJbBU+Q9CCEuAB+M+GBfBmECINY1UewFyr0pdzgrtsyFKCCUElAIsnU6risKZgW3boFURM8heqqJQSmVFqWhBrO+p+6mUcml8sChh2yCECKEKrEFoLWybphFKS4Wsqu3LO1JV1TrfliVRSjWM4QZVihLCsCxvBlWq9A/ODKoUJQQTUmIYVbBE1PXU/aTIMsswxltGH/SmRJ5DCHFmvB3j0lSVYRjOYlSpUoBZoX02VJppKCEsAMDlcmFN4zlOFI3umGuaVvrAEHjeONSJEIIwrtSUvqfup0KxyPG88ZZRFIVjWT1UKUIYhhEEwbgPxqUoCsuygiBYiiolKwqDkBXaZ0MYY1XTNEIsNA5talMfPG0G2KY29RBV7iKKUqppCiGAYdg7JesNCGuahjFEDMdWpxr3HTcwIZRwZqwkCcGUAIigpT5O7ooSQhRFZRiGYSxysAsopVjTEMNAqDuf1HxRSjVNYxjGrPdYVt8q5DLR1eXJmTlMgMsbqK2tq6sJ6mwUSlaXFhaXluOpDERsU0tbTSjosFdh9ZxLrS+vJfIKGOxrN2hKU5XFmdsykDxefyhgrUJhBGvJ+PrMzHQinUGsWBOpbWhocFQ7O4lSkkklx65fr+/o8/u8Im+JLzqCtVwmfX3kZmtHeyhkTpHLBwcYJXhpfvrMiePnR25DCJzemsGt2545dNAuVJwHTSlRC9mL505fvno9ls4RQnu27Nn/2K6ejqZKBzFVUQglLKcnLZwSUizmb41ePndlIkddRgKMUqoqxdjq8uE3fqw62rds22G1AMtnkjdvXH39pz8vqJpGYEf3wL4DB7d0V7PoOME4l03dHL32na//wye/8mdDWxxWCDCsqelE7Pb4jW9/+6XPfenz/qA5AfbgeVAtpC6cv3D4xKXnPvM7X/riF3yCdvHU2zemVxQNV/rHsKrM37py7Nw15Ih84Ytf+uwnD5099tb5CxezxYpNLc7P3r55M5OvGHpDKSkWstfOHf/2//ftn7z60+W1RKV/+l5pSnFu8ubLL3z3G9/5/rXRiXxRMWLtYej2jUsXzp+VbbW//fkvf+TxHcnowosvvY6rSnLKphPnTx75zje/8eM3316JJTQr1PWiNB5dPnHkra/91V8dPXs5lkyb5dODAyy2OBNPpMVA49a+zta29sHuDr9DPHvxmlw5VUpR5Kvnz0hOX0fvQHtra+/gjnoPl06sz67EKzV14+qlE0ePriYLuMIjYFUuRJdmf3rsgsPjamyqNVi1bXVp7sbo2FQ039lR73JJlsrWAQAASiZuT62tJfYd+FBTU9O2HbuCHtfS7RvxvKrhqrk6cvXSrekF3hNprBF5i2RIEuXq1Ws3bk6192+xCwhB0xrnwUvE2NpaXlFdNXVetwMCUFsbnpieuzExq6mVU6VUbXJyUqzfEa6rtdvtwC7VBhy5YmEtmgQtobIsaGommdIImZ2Znppd7FhatsOCy+2yiSJX3tYLhEgQpa7efl4LjE1F141lR3C8WFNbP7xTnOajtBpfkg8QVVdjiVRBbe9osdsl1l7rdkg4ux5PFx2cxFXpLMvh9nZ097l8odvnXjPCYDdTEHr9wZ7+AZvA/OLwGRO3gR4cYJlsXiHE5nWW/qhNEjiOTcXTOsZ+TGg8mfG38cIdRhV0OGzZIs5n8uUZoIVcduzq5VRRmZyeXVqNjly9lF5ytnX1NtTXeZ22ckywnOAP1z/38YblWyeWojmDAeYLRdz+cFch+y9zx+IWTKgnWk7VChQ67CKEECKWYxEPtGxOId6ymuthqLNnoAvC6YmxF1nL7B9Ctn9wa3d3R3xlmjdjV3lDZWxyAAruhUxAACClVN/KqpTGBt7ZHUGwkjxomk6sH3ntldlk9sbYjUw2l1Vfdtv5J577jOTylBlgECGWF1gATKG+cBzPcUBTyhwgHrkoJSWg1J0GhwBAgCghpIpfYaWUC+uASwAAACJBEDhkfrpwGUwOhyQiJnZ3kinmZVXFLp9bx0EBg1DQ6wKKJufvTBy5dAEJPslVZn0TFKip+9wf/nFRwy+98L3ZheUnPvWl9og7GA67Xdbau7OKGN7JcQ4ECgWFOjhKNFXFisY6naLxTNFNlaMHt3KgJiJyTHxxJpUrKoq8sLicSGU6Olt11OlhOa69oyOdiC8vLsiKnM/E51aTnCBGQt4yLfCCWNfc0tbe3tLS0tTU3NbW3tHREfJ7RSsVNLGQEFsT9Dpt3Nj4bVlWEmtLqWwOOv1+l2iVj58Puh4cJN5QXU04OHp75vjJUy6RuTExpyJx30CXjuRljud7tgyPLJ+aHr92xgHUXCJLpf6aSKTssyMIYSnNtKW9w+EN+l0Sx+lMTYAQMohB5nzoQ4RYhrHWjQkAAACotb1tLZ64fPakF+XT0blETm7v3+KxsWy18zkghFar9VxaQrMci8z7NnxwgIlOf29vT3R5/uUfvyhyiJN8A1uHt3U38VzFXZPjhLb+Hd1jk5eu33jxxdtYzrcN7uvt6/faK2anDQ7vJIRyHK878YflRKfL7cMmTH0IIafbh5HTJlaf3/IedfVtyeQKoz96+eW1mVw+39Y9+OxTh7hqRxcAgOP5UE2d3WapxSpkOSFSE5Yk03aAyljmQdTS2ecP1e5aWlIwdXl8wWBQ5Bg9MQ4hI0iHPvbJod37EskM4sXa2jqv26nDVAnnYGTG8NZ0HvhQTUE14e0KorT74L/VoN3pLnet+8gkuXzDew40tXVF1xO8aPcHg8GAv9pOAQBAqKbud//kf69t7nRJVlneQ5b3hhr+6Kt/2NjczJo0BJX1HcULgjcQtNkdhAKO53lOf3VNCJHT7RVs9lCNAhFrE0V9u3nGF2OCzRkKSxXmgby/EMMGaxopQCZygcwSRIzd7hQaRF8wzLAcz/OmJDcbl80mdXT384LEsFaZwSBEvGjv6u4UBNGsOb7MtoYMw9od5tQdhQgJoihU+3ocYljBpHiAEPJC1Y6VHiiIEMcLHK+fYfwwhBjG7rDa3i9EiHE4zORGInCXE2RN3SkKUqGD+p66jy1aPgTq4an6Hlhblm2fO9i2EhbMYGIeuIcuZpa1d7BpZfdyfU/9Cmum/JYSJ0DnFZ+SBxZIiqXmNYiJsqZLpX+wAIBoNKqpKoQwm80atFvipQEANE0zgSqlqiWGUUW7pvqe+hXWKKUlVJYR5bLZYrGIEGJZtqKgRwipqprP542/HeNSZFlFSNU0y+Q4AQCAUiKIWWChsSFCqaZpd6hSoigWKGUYxhRMTSl2TTniIISAEh+qktep76n7CSFkSsuwLHuHKlXJvAoBKFGlGJY1heFjUKqmMQhx1iiJsiGkqghCK7TPhkiJbrRBlSIYcxxnsxn9Ut8o3CwIgvEfTClFGIuCUBH1Tt9T91NRljmeN94yqqpyHEcpJRhXRpWitESVMu6DcamaxjKM1ahSiqoyCFmhfTaEMcYYa6UAK3XEkgza3TBirrWKJkN9T/1qa+b8Fr3f4iUesBUmDWheg5goa7pU+odVjiA2takPpMqnShFNVQk1hyoFSjQLVWU5riqfy5QSVVUpgCzLGkzVoZQSrCka5liOYXQluDx0lahSCsOwFqFKEYw1rBECeJ6zVDoipVRTNYZ9tFSpfDa9trI0MT2rEeD2Buvq6hpqw0Z6EtaU+Pr61atj23YMezzuR/nGKcFyIX/r1s1YPKFR6Pb4u7q6HZKgL7tcKeajqysTU9MFWbE5PPX1DY0NtVYo2bghgrXEemxqciKezjKcUBOpb25qdEjVPHROxaMLCwtLK2saAaFIQ2NDXcDrtsLARLCWTaeuXh1r7+4Mh0OPjCqlLc1Nnz5x7PLNGQSB5Ar2D271Pv1hu6hz8lEVOR5dvnzx4reef/X/aGhyedw6+qOiyAQTThArpUrJxfzizO03X38tkcmpmLq9wQLmh/pa3A4dFQ1pdHnhwrmzx89dRggB1jY4NCzaH68zozq9Wcql4zdHrrzx1mGFUBWD1o6+vfuZod7WKvVnSrB268bVcxcuTS2sQgjcgYYPfejA9m0DUrUvHGmqkopHb42NfOf5V377y58PhMwJsHKoUukL588fPvkOVerS6bdHplfUyqlSAABAaXR5/q3XX/76P3z9zOWxVC6v7/RicW729s2b6VzFVKm1pbljP3t5Mcs9fui5Tz/3TNBO/+4b31lejerxguKzJ4+du3Cxf8/TX/7K7/XUO6dvXj98+qoOSw9Pt0cunz9/TrbVfe7zX/7o4ztS0fkfvfRGte4zU0KU7Pprb/x8OV781Gc///u/+/nE7MilSxdmlg2xvczwjMajKyeOvPW1v/rLo2cuxRKZR0eVii5MJ1JZKdS6pae9uaV1S29nwGU/e+GaLFdMlQKAAiKfOn1mYS3e0Tdg47HuQeLG1UvHjx5ZTRZwZQFGomvRS5eu79i1q7Ors7uvv6e3d2n0fCyeKqgVN6mSTcwtxfIav3/vcENDw55dO52S7crFSxY676RkYmIqFkscePzxxoaGrdt3hXyelYkb67nqUKWwpi7cvpEnXLC+pberrb6pbeeW7mI+d+PW5KN35l0iytWrV27cmu4e2uGUWAaZ1jgPDrD1aDSnqK6aiMdllyR7bU3I5bBNTc5pOuudwUhd49ahbduGBngGVBpgmqrGo9G11dXZmempqcmFpeWVlZV0NlfudEpwOpudWUk2NNX7vB6Xx+f3h1Aumk7ninLFP6eQTSULKuYd9WG/zWarbWgQOW5tfl6tKnXwXaLq6noyVdDa2pskyeYL1rjsNpKLx9NFDVchsUjTtKWFeSrY3MGQ22kXbfaWxlqsqsuLq4/emXcJwkAoMrhl655dww6Jf8RUqZx6D1VKlASOZdMJPVQpACBA3PCOnUTJjl6/VPkXHC3ks2NXLiWLyuTUzNJqbOTKhdSio727r7GhoSzoDcWKqiUVYpNElmUgggzLSiyWZUXHilcp5BUAqSDyDIQA8IKIIFBzGY0AFgErfLUDouVVrUChXSpRpTiORRzA2ZxMfFU4liWEJJNpxPP83RuNDqdENZzP5h69M+8SZHv7Bzs72+MrU4+aKgXALxGAINU/RkMkiiKG+gi4NJ1cP/HTN2dT2ZHRkXQ2VwBveOz8hzHn8PjLpEpRAEip8DGEAEAAIUCAAj0/iAJKIaAbjQMhgIBCK6XEUUDvnG7f8wIRLd0RqI5H8L2QMgoscF/BAlSpO2PMHaqU11WN4wsUrKn/rT/6qqyRn/zguzPzy0995svtte5AMOhylndXDbEixwU4KBdkTcOAhVhV80UkigJXOR5dlBwiBXm5qFDAQaAWi5hAzubkLTJ9AQAYrkSVyhdk6ixRpYiisQ5HdS7qMwgF3C4wvaoU7mDFsukCYljJaeYVLEupHKpUrciz6wszyWxBluX5xeV4Mt3V1aaDKmVcHC/UNjY1t7Q0NTU1NTW2NLe2trQGvB6BL2+TFzIup7OlPnB7YiqRSGWS8djaiuYMu5x2G1/xz7E5vR6Jg3J6ZjGqqurczFReLkZaWhjrIP8QWxPyOm3caIkqtbqYzOag0x9wiVw17hEzLFvX3IoLmfjKciZf1FT55sQ04tiGhtpH78yj0YN7lSdUFwkHx25NHztxwikwIxOzmJWGB7v4Mvv0fQQh4jiu0vwxCCGEDACgtaPL5Q/73bYKqVIwGAoNbx8aH73qYlQHq01PT/XvPhAKeIXKOxxnc7a1NKTSyWNHj640hm9du4ohu337VgsdMwPU2t6+Fk9eOXvCA7Lp2HwyJ3cODrltrI6qNMbFsFywsb3WdzIdXTh+4oRTQLcWYvVdQ51tDY/emfcTBBByj5wq5evt7YmtLr7x6ssih3jJ17dl29auRt5IwhREgig1NjaIok68x8C27fqoUqHa+sc+/PTNb3/3zPEVFRO70/Nbn/3NmmBAT39D3LbhYVkuvnXs57fcjoIChrbvenzPcOWGHqI6+7Zk8sXxH7/yZnwxl8+3dQ0cfPKpalGlIGLs3sieHVtPn7vw2isv2zjEOmo6u3raG8JV8ee9gpDlxLq6WoddenQBVqJKBWrq9ywtyRp1eX3BQEBkDSXdIVZsauv+T//pP7TU1+oLU91UKV60N7T1fvVP/jQaW8cUub3+SCRcZuGIX1a4ofXJZwMDw7vS2YLT4wv4A163joyQhyjJ6du++0BLe/daLC7YHP5AwO/3VdMhiLbteby5sz+2vi5rIByJ+L1e3hrcG8jwvmDDV7/6h3WNjcyjhN5wPO/2+kSbhCngOJ7nOYMzKESMZHf19HTbJJs+U7rvJkAIOY4PhGocbi8AkON43sDHJMNyTrdHsEmqpnEcz/GcFVJp7xVEyCbZa2rrPf4gw3Acz+keTcySINoC4RqX10cIEEWRZc3qzEYFIeJEqb2znReEKlClJLuJWz2QYVlHtfaOIGRYzs6ak/yGGEa02axXuegdWY4qBSHH8RxnOUhriSplt5dZKaEsWWJq3tSmPqj69QgwfXAoC9PoNvWvRSwAYG1tTVEUAGHGRKoUxiZQpRSFEHKHD1X2R5e+p361NeNUqWwuV5TlEr6mosSFElUqm8sZfzvGJSuKpmmapkEr3ZIsUaUsNZpuBAILAGBZVtM0BKEpyRnoLg/DuLUSaIFBqKLXqe+p+1pDyJTfUjKywWws+89DWmJymOGDcaGSKwxjNQCGRdpnQxAADAAtBZjD4SAYsxwnCEa/g7GmlYZnnuMYMyBwBGOe5xGqIPtI31P3U7FY5FjWeMvIslzCbBFKafl50hCWqFI8zxv3wbhURWFZluc4k8o+mSNVURBCVmifDRGMNYyxprEAAJ7nGYZhEGKNtxqlpYGEYRjj1hiESgYrIsDpe+p+QgghM35LqXxYiUBbwQxGKaAUQsia4YNxlSYKhmEshW0rzV9WaJ8N4bsnSRaaVTe1qQ+eNgNsU5t6iCprEUUIlgv5WCymYOpwut0ul+GayFSRlWg0FggGeYF/xN/LhOBsOpVMpTBFDqfL7/UYTL+glBRzGRkjnhckm+XOT1VFzqRTiWSKEySX2+1y2q1AlldVJRVftzm9giBYIZdDVeRsJp1IphAreH1ehyTpq1z3HpURYJRmkvG5manxiUlFA95AuKWlraO1kdGdj01psZhbWlg8cfLSU88+FQ4FdLzu0nYcgBV3FaypuXTy+vVry6tRlUJ/MDLQP+j3OnQnTFFCCvnsrZHLBeiJ1NU11wf12XlI0pTi2vLS2NjoaizBifaGppaO9vaA15xSb/q9UuXY6sqZ4yd6dx6oq61x2KqMlCJYW1mcn5ycWFqNQlZsau1obW4KB73G474sbNvIpfOvvvJywVYTcoATJ06FG9r+4A//vd8h6AsxQrT5yfE3X33t7797uGNwMKArk11TVUIIywlMhYNfPp0Yu3zm77/1o6bWZkjkZPLozcXMp5/ZWxPUWf1VKeYXpsb//q//q7/z4FPPfMRqARZfmT955O0XXj2ya/fw0uzERWdox/6nP/XM3iq6RClNxlbOHHnrP/+f/+V//Yt/cPv8VQ8wORv/2Ruvnbt4vbGjK7c+f+rs1X0HPvQbzz1pvFT8gwMsHVucnJ2La9JXv/g5iYOn335zZmHt5MXRp/f0SzpqfhPt+OGfnj5z+uqNCUUpVrBh/W5dOH1iNRbftv+ZWr+9ogXG0sLc0V+8tWXvhx/bucUr4pHr1779ox/sH+4M+D06WjO+tnT5wrlXXn9zbnXN3qJZL3eEjly7PDM7d/Bjn37qsS2F+MLbJ86dPPLzjzy5R2RgtdKSx69fOHny1NETZxVcwMToCb4pGrtyNp6V27bu+fTHn1QLqe89/48L0+MLsd3NIaNTfRlUqZWFZCpr89d2d7S1tLR2tTY5Re7ayC1F1YVto7ioEl8g3NfXzbFE97fA4vzs7Zvj6bxSWZ+mOB5P3Bif6urta+/o6OjsbmluTkyPxxPpgqLnTctykUIm0tja3lLrsFsv45fiubnFWCK7dXhbU1NjT9+Az+lILEzHM3JVqFIl5fNFyent6O4JeoSqXKz+ZU2Oj2uAaeroaW5qbO/sqfXZlVx6djFm3PKDZ7B4LC5j4g5FSgO8z+uxS9LI/BLWBx4FsLGls76xYX118YUXXq8wwKhcLCzNzRc1bWJycnZhZXx8VE25wjURj8dTFhqW4lyhsBTPB0N+m01geShJThvOZrOFooKdYsWfYbxob27vDjS0noULGd56AUa0eDqfVXCkJsAwDCs5JYFn1Fw8XfRJbLVuYXmDNcO+cHNr65XD/2yF7Q0AwPLKCnQ0+kNBCCFkOL/XmVwprK0lAGgxaPnBXSqvKgqg7N3VIMMziAXFQlHXcggChu/p6cZy+nIqWvnjNBFbe/X7351PZ69evZJMZ1LK8z6nsP/pj+/asb25pox7hISoGGcBYDmmlOcBGSQIRNM0rGtE9wfD/mA4m45fqvYlq/cXwUVCihByJeIIRAwLGIYUi2qlRGQT1drWAQC4qRaq5cAvKysr1A03OjkrsABSpVg0bvnBAWZjWR6i/N35imqUYsBWjtMwQ1ByOAd37W4sKnIhu7y6vm3X3oaAvaOl0SWVN3sgxCJGgvCddApCNRUhxFjtoqQ5QkhASASAlIYPSgkGhECOs1YyYdUlcZxMAVHvdHKiEkghY8aNtTKgNz4vz6CV6HopPz2VTheKxZraOlSFGiLQZnf2Dm1TMZmbGGVYfmDrcGedx+vxSLby8tAgYxOFkJNPJDKyrEgQynI+Q3i7XRQrp0r9GghxbrtgZ2F0PR1x8hjni4qqQMHrsrHW+PixiEJB/3wRp+IJAAClJJHMYgADZhTxeHCv8odrnXZbdnJ6fGLGKaDxiZlEtti/u4PnqrC1ynF8sCYCAOjq7rW7/a1NjfU1zgrKBUHk83p62htHrl31SYxH0CYnJ131XV6vU6yci/hrIMg01EVW12IXzp3381vy6/P3NItXAAAgAElEQVTRZNodafY7BeMb0B8ktXZ2zV2cmBobmeuo0fLJhWjG5q9trPUbt1wGeDRYVx8J37h+/fCxk2Enc2NinhFdu7b2losifH9BhmEdDofuw/KegS0NrYWQx1bhWRwM10R27937L0cuOVhVgMr83PzuJ54JB3y8ga9tCBEv2ATEWyrfFAAAAOzs7lmNxU+cPhKUtJWZm+kCHtyxx2EackK/GAZJdodF6ql39g9dHpu7NTFy5py7EF9IYb6prrkh5DZu+cEBxvC2HXsec7ldR46fjM7Bps7BbcPbmkJuI0MgRKzbG9i//zGv26XPTF1DE6VUx8UkTzCy8/FnFSiM3p6UCdPUve2JJ54IegzRQRiWq2/p8cJav9dyhNqG9t79rMhyx69dOm9zBYZ3bdu5fbj6PRoAu8M1vPtATSggcNUflbzhpqeffip0+eK1KxdY0fXUoacHB/pE7tGkSgHo9Ph7B4cDkUaNAIfD5fboOZN9l0WWr6lv+dKXf6c2HNRnSfd9JIZlnR7f7n2P92wZxhTZHc6Q12lws5jnxcHtT2Ao2Gxm8lJMEcsJkYamg4cc2zI5lhPdHo/XZQmwnC8Q+uRnf9cbqrNXfjpiuiDD1ja22t2+vqFdiOF9fr/L6TBlGCrrt7Es5/L4XB7TeHoQMpLd2dVVlYw4yLBcIBwJhCNmWUQM4wtaFf4MoWizR+rspv1akySItua2rmp78Y5EyS5K9nCkzlyzm1tJm9rUQxQCVSxlU4ZKjlV6qK3vqfubq1rzwLvcHsu+oE39arEAgHQ6LcsKy7KFgtHDdULIRo6iqidZ8V1SVJUQIstyRTwTfU/dT5qmQQih4ZYpFouqqpbIQuVHfgnggzGWi0Xjb8e4NE0jlAIDZOWHIU1VCUJWaJ8NbZDIWACApmmUEkqIrqKV77Vb6j3GTQEASvkWlZrS99R9rZVsmdcyFReUAeCuC1VLz90QoRQSQgixVIBRSol5b9wUbbxuFgAgCLymqYhhjFNiMMaYEACAKVwUDWOAcaWm9D11P92B3hhuGZZlESrVlqwE2wYALUFvWNYUho9BbSBvLMVIK6F4rNA+GypxEQmld7BtqqKYAifTtDt3onieNydcIazUlL6n7qd8ocCZAbQrYdtKc1GlAWYdbFvpV5QwZNX25R0VZZmxGLYNY1z6VLHQOLSpTX3wtBlgm9rUQ1R5iyhKNazlczlMqCCIgigaL0CKMc7n8ja7VK38PUqJqmgaxpJkM2IHa1qxWCjKiiDaRFGwXjoiIASripLL51mOFwTRWBKpaSIEFwsFlhdZlrEC5aokSkgunxcE0awS5GVZyecy0bXV+YVFFQOnx1dTU1NbEzTSKJoqx9fXb4xObNm21aM3HdGQKM2m4itr8YIKB/s6dJtRivlYdG1ufiFfVCSHOxKJRCJhQ8V1zRbW1FQyPj83F0+lWd4WDNXU1dU6y7w+99BECE4nE+M3bjR09Pl9XotcZcCamk0nR0Yn2jraQyGdSXzvUTnYNjJze/Tnb7x+ZmzWxkHG5ts6vOsLn/sNG8fqDTGaWl89d/zYn3/thf/3b/7L4IDr0a9TCcFjl04fPXsjzwSMBNjq/NTRI2+//PNTPq8zW8A79+z/jU/9Rl2gylC0e1XIJC6dOfH8939od3vSmUxH79AzH/3k7i1t1fVKKWRv3bj8//zn/+tL//H/3r1rSOQNLSJMEs2l4yMXz/z5137w7//0Dw8Gg6bwOstABqSj12+MjS0k/+Crf+oS4Omjv1ibHz87Mr2nv1nUsdigZOzaxePHjhw+dmYpGpNVDVAAKv8lI1cuJpLpzi27Au7KbqwQrGXT8cM/fePIkV/MxdT2gX0V/+27olg5d/bsran5T/3OV3qbwzfOHZ2LRX929MwXf+Mp3TZN1+jVC2NjY927Dz37oe3ptZnzV26+9tqrwwN/zMKqHWWtLEydOXXyjTd+OjoxkykUiBVQXJRM3Ro9deLozw8fnZxdKRRls3x68OQRX56PrSeQI7h1oK+nt7envcnGgktXxxRFF1WKaLPziwUVNzU3QarqzgGambx9/erVRFaplC2BNSWTXJ9ZWvf43MGgVx+KoyQll5xbWEsX4a4d27q6urZtHeAQvHblmoXOOymempxeWVvfun1nZ1fX1qFhr8O2eHssnlO16jE5FhcWUtmCJ1TnccIqXIt/X1FtaXklnsq2dnZwLDAxNe3Bvy+2tlZUNG+kzmHjOY6vCYfcTvvU5KymkypFJZe3b2DL/n27RQ5UusxVFXltaXFhfn5yYuLW7VvTs7Nz83PxZFpWy3aGAoZhG9p6du8a7mhrqNT7e1XMJpNFFfOO2oCHZdmaunqR49fm5zTr5HYSbS2eSue1ttYmnuPcvqBTEmk+sZ4uVhHbxnBiS0fPY/v31wUk3ow7VyaIApvD3d7Vc+iJx91OM6+jPniJmMkXZEBF552bToKNY1mUTWV0ZaZAwPD79u3HcubqpbOVP05zmdTFE8dj+eLI2PhaNH725JF5n71vaGdHe1vIU9ZdLE6whetbP9nQPj92dHLOEPiuWCjIEFGbwCIAAeAEASGqFXIqAawJlcnMEFFzGs4DKNl4CCFALMsyHINzORn7bQBUZ2thcGg7AOD22HUL5Vsx3NC27UTNLc/dZJCZzfLgAGMhZADEGysKQgEFBopHQoQg1TlEUE1T4+vRaLaQTmdy+Xw8FuO0fCaTVTWt7L8PITQHxocQQhDAjXGGUkAhrHhWfpiCiAGQAfDunEoBpYDAkuPVcspSaVZ3BREC9CEEfBlMDpeDRyiRzJQ2I/K5oqJq3oCnKlQph8u7++CTRVWTs6nZxZV9B59qj7jCNbVeRxW2oWx2uwhotpiXMRUYWMznMaW8y8VZZPoCACDWKXJ2BmQyRergKVYVFcuUdTnFSpn+/xr0MN5aOVSpiCSOJyfmVmIJiYMz84uJdK6re4irQm4lFG1SW3cPAGBy/JrD7RvoH2ivdVcLvyw4PD6HmEis3ZpeaA57piYmckW5rrWNreLs8B4hNhLyr6xGR0ZGw/Y+ObWcyGR5T43PKbBW2V74gOvBQeKtaQgFfOj66PlLV/12ZnRitoDRU1t7Bd4QlhEiJAiCbtxnU2u7wxP0OPRbgBCxDMsaOLDnbO7Wxtr19djJU2cK3Y2XL11VKdo+PGSV6AIAANTW3r4SXb9w5mStC60v3Ermiq19Wzy26lPbEII8LzAMo+eU5mEJQogEgddfmuuX9ODuxdtc23fswEr+lRf+kQIYbmjf9diHBlojhuYNiERRamxsEAVB37zcv3V7Kc1c94cyJ9g8Xm8QGBgmILNr3wHEca+++dal49TuDu3dt/+JvVv1G3wI6uzfpmCw9NJPvvf8NwkShoZ3P/XUISssDzleiNQ3OSWbRfD0AAAAIcsJdfV1Drv06AIMQBSqbdj/xLOtvUOYQofTEwgEOGMjIGLFhpau//Af/7SpPqKveY1fl/CG2x/bF8orhlZKbl9o+54DdS0dBVm1Sa5gMOiULHRpAgDA2+wdfVs+5wumszmGFXz+YCiksxKauQrV1H7hD/5jbXO7q9rFwTYEGd4TrP/93/9KQ3OzWSvoshZIgiiFIjZ/MEwoYBjWeGlNiFiHyzs0tJXjH3X92A0JkjsiOA0eWLG84A+Gvf6ApmGWZRFirLK9cVcQMS631+F0a5qKEIMYq2TW2iRHz8A2luUM7EibLAgZweboH+hnzQOLl/sFAiFkzWDhbwhV+4YchIgxoxkhhAzDMoyFrtP+shBCPG+tqRVCaDWXQAnSbGxz4T1iQekSOwDURAwTAMAkayUjFVOldD11P1ugwkv+JuodqlT1fHiPzGxb82R67zWoDWdYAEAqlZZlmWWYouGCSJiQEkyKAsAYnvotQZXCGKqq8ZwDo1QpWTb+doxLLVGlikVLHRZrqgoRskL7bOhdVCmMcWmANM7l2ai7ZQrjZ5MqBSxGlSq1honNa4oopcBiLr2HKiWYSJUi5lGlMMYAlzYPKhgv9T11P21Spe7VJlWqTL2HKmVXFdmaVCkIIcdxlVKldDx1P21Spe7VJlWqTG1SpTa1qUehzQDb1KYeosqmSmlaPpfVCC2xk4zvEGKMc7mcJNnZKiFiKCWKomqY2I1RpQAAlFKsKRoGiGF4k2hEposSUijKiGFEwcxzHj2eUKrIxUKxqGHqcDh4nrPC2TchWJHlfL6AWE6y2TiOM8WpsnpDLpteW1meXVjUCHC6fZFIpL42bKRRVKUYj8WujdzatmPY63FXhSqVScSWV+MFFW4dNFSlilKqKsX56VsysPv8wZqgCXVHTRfWtGRseX4l5fJ4Wpvrq+oLTcWjS0tLq9F1jYBAKFJfV+v3uasbY5Tg9bXVpaXFWDwJGa6mtiFSE/a6TahXWh5V6tboW2++dm58wcZBJHq2btv5hd/+tMTrTLSllKbWV84eP/bnX3vhv/3df3V53DpmQ31b3hsPY6yNXjp99OyNAhs0GGAEq8nY6ov/+A0YGNy970MWDDBKSCGXPvv2a0euRQe37ahygFFy5cyxoyfO3F6MSTykYugTn/jYk4/vFataSBYrhVNHf/72keMZDSr5TEP39ic+/OGDe4eMD/1lUKVSa9dHx8YXUl/9H//MJcBTb/9seeHm2euTewdbdVKlrl44euTw28fOLMfiigGqVDyR6hraE6ycKpVJxX/x5qtvH/nFfAx3bNlf8d++R/lMcmzk6muvvHTk+KnBfXVGEDoPSViTZydv/+Jnrx85ejiL6rv6h6roDMFaLr5w/Px15Az/yf/0eZcAf/D8N6cnb442Nm/rMsRHMajJGxcm5lZ8zQO/94lDcnb9hRdeGrl8rr+/O+w2+vnw4MljfXlhPZ5kXeHB3q7Ozq7utiY7By9dG9dLlVJn5xdVCts62xE0RJUauaaTKpVNrs+tpIKhQE3ET4yFRDKxHl2PU8Hd3BC02wRLZeuUpBTz8UR8JVHo7Gx2uuzVPY3Fmro8dStdJJ5QXV9PV3tHV29rQy6dvj01V0WvAAC3R0cUDTR19Ha2t/f0Dda4hXwqPrO0btzyg2ew9bXVgqJ5aursIg8ACIeCLqf9ypRuqhRwegP9g1JbLvXaa0d1UKXW19YUTCYnJqbnl5qnp1nZ7fP7HQ67UPbuAsvxzZ29NuIbubW8lK7Y/3uFEBsIRXbscXmYFdluieLi7xEEwOnydvdvDfCR1Iml6jqDMV6an0ei3R0ISgIPAGhqrLu5Nru8tFpdx+bnF6BQU1NXz7IsyzrDfudsTFlajoMeo8vpMqhShaICqOi803vuUqWyuqlSe/fuw3JaN1Xq8skTsULxxtjN1Vj83KljCz57/7YdHe1tIU9Zn6QcbwvVtTxX3zo/dnRiNlq5D+9SuK4xVNuQzyZXbryqVv2S8PtJtHs6e9zNra1TV17j2Cr3Y0JIIpsFAsvZ7hwKSw6RYK2QzVfXsWQuT2yIv0t2ESUBQjmfyRm3XBWqFNBPlVJLVKliOpPJ53OJWJTTcplMTi1/Oi3lz+r68w/Z2MMRhBBAi8Q+BJCDCFL4zpcBIRDAql8J4yBU4T3FuEtbaGZ4VQZVyu3kGZRIpkubEblcUVE0b9BbFaqU0+Pd++TTRQ0rhfTcwsqBJ59pj7hDNTUepxWXZ5t6jxCDAgEvmZovZPOl7pRKZhHLOMtbfTw8+bzuKCb5VAYAAADNpPOEArfPhBoD5VGlhLHk/NxyNG7n4czcQjyd7e7dxnGP/qY3FESppbMLADDR2+tw+fr6+tojVaNKbapSMSxb29gCj4/HlxfWYnE7j8ZuzzC8s7GhrrqOtbS2ro6vzE7eTg00a8X0YjRNbb6GSMC45TKoUuH6cNDPjIyfu3jFb2fGJucVwO3Y2iMYCzCEGFEU9VOl2jqcvpDXboAqhRDLcuaUgYKQZXkWscYTXB6aIEIsx7HVypspiWHYUFNnyH04HVu8cPmq347GZ1fbBpu725uq6BUAoKNvy7Wp6PzEjWsjETm5vJ6nrY2RpogJ8JIyqFKSe8eOHUQpvPLC8wTA2qbu3Xv3DbRGDIH1IBJEqbGxwaafKjUMAIBQfwIAx0sejzdATcgbQohxeQMAuW22Kmch3U8QQl50BPx+l6uaizGIGNHl/8gzTx09dvxH//Q8BaCjf9fw9h0ttf4qegUAqG3t27MjdvTosW/9968DyOza9+T+fXtNofGUM37DYKRh/5MfaR8Y1ghwON1+f4A1Bo5DrNjY2vU//y9/1tRQq48qZfw+kjfcvu9AuGiMKlWSIEq7H/+kCiSny3JpHCUxLB9uHnrO2WWTqvy1AwBq6uj7mC+850NJjQCfPxTwe83DEOr1ieF6tmwP1TUnUmnI8IFgyOf1mOJTWQskXrQFwqI3ECQUMIgxhSpld3q2bBlgOa56VClXjeig1IS/zzBMMNIMaPV3w+4niBibw9coeSGsvoeSwylK9praekJL91AtsMUJodPttTtdtRqGCDHmsbcqoUqxZu5qIGQyvqdSQYiMjxQbxixOlQIAmATRMkelO8jV9uK9QojhzS5mi8BdqpQ1VX2qFLjneOSR6x2qVLU82JQxsQAAWZaxpmGMKygCdB9hjEswHQ1j432iRPgoMXnKL32h76n7iRCCCTHeMpqmYUJghVQpAAC8C3gw7oNxlRpWw9gSdV/vqpRUZIX22RApdb9SgGUyGUVROI4zDr4ihGBNAwBQM/Yh1BKATVEqypbQ99T9hDEugegMqijLqqpCCCFCsKLeCSEhRFEUK2DJNE0jhFDdF4UejjRNQxbDtlFK38G2sSyrqSqE0JRjHIIQAAAhZNyahhAEAJU65UN+6n4qJUMZ/y0MQnfmLl0IUVPa07hKAwRCyAp3kDdk1jsyUYRSCAAtBZjX601QKgiCJBlNONI0TZZlAIAgCKZAnTDGoihWakrfU+8rWVEEQZBsRu8FaZrGc1xpYKuMKkUIy7I2UTT+doxL0zSWZQVBsBRVStU0BiErtM+GSt9KmqpaKOg3takPnjYDbFObeoiqeOlVulxgcAVemkAhYlgGVeVzmVKqaRoAwDikllJKCNYwYRnGguWLSiKEWK18EaWUYAwRYyDdzWQRgjUNw7v90hSbZQcYpYSShZlp3ub0+P02Qe/nDaXJeCy2vp7O5iDiwpFan8f1KEFilBJVkVeWl5KpDKbQ4XTV1dWJPKdvQ0RTlXQysbK6mpcVm+QMBIJWSPy5V5TgbDazurKSzmYZVvD5A8FgUOSrfCxOKS3ks3PT08G6ZqfTwVf9CJzSTCoZi0XjqTRiuEAw7PN57TYTUMHlNjTGmlzIvPTC92vaBnc//mRjSFdKG6UEq1fOnTx55uzkwioAzIFDz+3fs6OtsaZyS5RSqmOfEKtKYnXxR//0vamFpYIG6xpaP/2bn2utD0iiniDPJKIXz55+6bWfFlVs99Y8tv/A008edNstxHBWi/mJ0Ws/+fFPlhMpisRtO/Y+/fTTrfUmXMTQL0o1VZ6fmfzW33zt2d/+o4GBnoBLrKY/ABCsjl27eOzY0dHpRQDQjn1P7t+3t6+j0fhIWdbIUcxnJ2+OfPPv/urFn7w6Njmr6gXFaJoyf+vysXPXoKPmi1/80mc/eejs0Z+fv3AhW6z4iHBxfvb2zZuZnFLpiefa0vzRn728mGUfP/SJTz/3TNBO//Yb31lajeo5N6X47Mlj585f6t/z9Je/8pWeetf0zeuHz1zRYenh6faNyxfOnyvaaj/3O1/+yMEdqej8iy+9Tmg1U0Oy6cT5k0ee/+bXf/zm28uxhGZCSoJRLU+Pnr5wNa6IX/ry7/0Pn/ro1Ojl40ePZgomnFyXFWBLi3OXL11MKDzHUZYhuk/xVUUZuXgWI6G5vXdwYGBox243U4yurixEU5WaGr9+9cypE2upYoVUKbq2unrh3MWOvoH+gcFt27Z1tLeOnj0eXU/IWsWjhppPT04vrGeUvXt39fX179w2yEJ64fzl6veXd0Qmbt1eXFwZ2rmnt69v585dLkmYGLmcLGi4QhqXibo5NjJ2ezKHWYeoQUCtkAd2c+RKXtYa2noH+vuGhnf6bTAZW5lZjhu3XFaAEQoEybll52NN9UGHgUsyqqreujlu9/jqmprcbncgXF8fdCqF/MpaokwLGGuZVCqZSExO3Bq9cWNxJboeT+QLRa3MSZXiVDp1e3als7MjHA4GwjW1tfU4Pp9KZYtKxZCsYjaxnilonKOztd7pdLa1d0iCMD85qVV1fniXiLa4Gk3m5P6BHrfTWdvY4nM55MTKekYut8UehlOEBkJ1fYNDdQGJ56r99QUAAGB6chJyfENbm9vl9Idq60JuqMnzyzHjlsv6Bmtsbo/UNdkk6fTLXzfyBY8xWYsl/U2CzWkHAAAA3W5ppahlUtnyDNBiIT81PppR1PmFpdW16MT4DTXpbGxpqwmHXVIZXz5EK6pqrEjsTonjWIggy/EOVisUZFnRgFTZ2FHMZYsAUdEmMBACIEgSA6GSTqkEMMh4FqQZImpGVnMEupwSRBAijmcZAWjpTBG7BfDomQ8AAAD6h3b2Qzg7Of7Gd62y6bqeTBN/0O4pQTig0ymhVCYVzxi3XFaAcRzHcZwZACVKKIXwnkw2BCkAtNzlCk3FYz//yb/MpXLXR66lMtmM9qLXITz+kX+7d4+9rAAr7Q6XfgmEAEAAIWR0FmGmgFII6MaGLixxiaq39vplUUoAuCd1EAIIAaKEVPMrTBRFoIfm/BBFCQX3dstSWWwzIK1lBZhZR1UIIZ/LAVSsFOXS/xSyRcT5REeZiUjQ4w8+/anP5BTt9ZdenF9aO/Dx32wJu+qbmoNlcvoRw7Och4WKrGKMAQuJphVkxAs8VzkbXRAlgYKcLKsUsBCoikwoZG12ziLTFwCA4ewsKyFQKCrUwQGiaRpWMWO3m1AfR7feiXbLyO2U0oTK+TvpwsW8TCmU7qyzDOmRtjLLsi0tzbl0MrqyoqhqMZ9eiqZZng8FPOUZgDbJ0bN1aHjHjt6ens6OjqFt23fu3NnSUOsoE4YBGafD3hh2z84tpNPZfCadiMcU0ed0SmLlN+1Eh8clskjOLEeTmqatLi4WFSVYV89Cy/QdxIZ8bqfATk3Pq6qWTkQzuQKweXwuwRBS5QOnhoZ6rCorCwuqphXzmdVYGgMUqfEZt1zZgSNCjJEsDo7ne7YM3Xjr4vSt0fEap5pbj+ZBsz9QFyozwACEd+4O1zc2saLD47BxXEW1mJHfHxgc6Lk5ci1oZz28Njk1Xdc7FPC5dVT34O3uhkggHl8/d+FSb0tk5Op1mZD+LYNW6rlMc0vjSix26fzZiETSazPxbCHS1u2z82y1J1kIgXXSStq6+8eWz83cujF+q1bNxlfScrihodkMFE9lAcYLAsfpL5fG8UL3tn2t12+dv3zqyoWTuJht2/J4b99gwFnxOeOOxw4QTDheZCqE5tQ2NH34mY/95d/8wz/fvKxiLDk8X/rSl+vCYR3sHcjwO3ftyuez//ytv/f7Pdm8tmPv/mcO7q3Y0MNU39btqUz++e+/MDtyJp3JdPQOffzjH+ctkGuCELLZJJZhrXC1rL1/e/vEzOEjx/7iL65rxUxj186BbTtDhkurgEoD7LlPf0HyBIMenX8YQsQK9kMf++TA8J5kOgtZrr6huSYU1NHCHMdRVs/HIW+zN7T3/tEf/8l6IokpdHl8La1tDrvOTIKaxtYnn3W0920ryIrkcEVq60IeExbuJkpy+bfvORCsbUyksywnhmpq6uqqW4DvjkKR+t/94/+tta/DJVWfdcfwtsceP9TS2RdLpBDD1dQ21NSETBmFKguwjp5BhuV43YmIAEDEhGvrPb5AsShDhrPbJX0oTN1ERIQYm93V2d2bz+cpgIJos4n6M5sEm72mrt7j9xdlVRBtoiBUl+z5y2JYzhsIOlyubC7PcoIoioKOqm4PQXa7c+uOx0TJyVngKAwixh8KO92ehkIBMZwk2TiTEE+VhYrD6TL+JxFibJLdJlVtpIcQcrzg5s3JGGRYzu7g7FXHDd5fCDGCKAmihe4jAgAYlnV7TNhFMEsIMaJNEm0mt1L1B49ypI8PZWFY1qb+tYgFAJQusVNKjZc/pHePbE20tqGH+tSvskaI8d9CKNVVK/eOD8QMH4yL3m1eKzizIWu6VPoHCwCIx+OKLCOE8nmjddBKgLHSP4xTpRTlTrJ8Rab0PXU/qaqqM9Hj3Srk87IsQwgZli3fGgQAIaRpWqFQMP52jEtVFMwwmBCLbK+XpKqqZrFCbRuBwAIAEELwrkz8GyZYgxDcZRtWYE3fU/c1BoEpLbNhpCLizbuetkAHKrWqxbBtwHoubThzhyqVTCR4nrcZZidhjDeoUqaAhzDGks1W6Vyk76n3lawoghkto2kaz/M6qFKEEJZlRVE07oNxaRizDCMIgqXA1yWqlBXaZ0OEEEKppqrvmsGMtxohBN6dOoxb2xi2Kxq/9T31q6yZAVIvuaJvobkBIzTog3HBu61qBWc2ZEGXNsZQC/n0K6QvTiy1ZtjUv079egTYpjb1a6pKDpopjUVXGU60O5x85amxGyrkMqlUKpPLQ8QFgkG7ZOMeafYDxZqWTKynM1lMkWR3BAMBljG0mCSE5NIJhTCCaHOUdy3t0YnSYrGQTMQz2RzDCS63x+N2WSGVXpHl9bVVhzdgs4lW8AeUYH6qsroa9fh8drv06ArwgRIyTlVOv/0LV01z9+BQ2KvzwJtiPDd1++Klizen5ljBdeDgE31d7QFfxQkipTWujqggGOcyybMnjo7cvC1jprm9+8knnvB77LzeIKeUyIXc+JXTcc3d0NTa21Hlet7vEdaU1aW50yeOj05OS67g4NbhnTuGA+4qJ0xiTYutLr/50r8MHXyupaXRY69+OmKJdbW+tvLSj9/40JNPdPd0smZEWLkE8ukAACAASURBVHlMDqzF15Z+8coL3/jmt0+dv5KTddJ2CFYTK5M/efm18anl3v4tDX7uxR++ePr8JblyPkQmlVyPxWQVV3pAlYiunD/609eOXHQH6xtqfLPjl77x3Z+sRnXiTSglqfXoxVNv/7e//OujJ87HkmWyDx6dFqbGThx5++jFyS1DO52scvHsyZfePFbdDBesyjO3R1750T/99d998/bMoqxWTEN5GJKL+Zsjl5//73/3/R++Nr2wYta99LICbGF26tiRX5y4fCuZWtc0RTeQSJHlkYtn8hpqaOvdvWvnvgMH2eL60sLc8nrF/fL6lYvH3j68ksjjys7v6erK0ukTJ1q6B4a2bd+7d3d3R+vpw2+sxeKKLnhYbGXhwrnTr711rKDkFKxpmiX6yj2iN8fGZmfnBnftHRradmD/PqfIXjt/OiuTikcm8zR67dKxE6eu3JzGalrDqiUy2oh65eK5n//i8OJ6Op1Oaqpqlk9lBZiiKKpG6lq7a0Ieu01/Kr2qqmPXr4kub3Nnd1NjQ1t3f51PyGVSS2VTpSilqqoqijI9cWvk2tVYIluUFa38kyVK4vH4jVvTfVsGW9va2ts729vak7PjiWRaB1UKlFoGU4c32Npc67Rb6Bzmjiiem1+Mp3Pbd+6oq6vr7R8MelyJpel4Vq4ijTBfKLCCVNfYEvbZuKozfUuipCgrnGjr7u2121gTN/zLipZQpH7fQY8vEJ69+LoRyjHGeGlpxTXY7/S4S7eTg37XmqIlYunyDFBFLq4uLcmatry8uhaNzc/NCloiGAq7XC6bUMb9AqoVivJqSvF53aLIIw4KouREci5XLCqaq/Kxw+UNDu96rH9o+09/sJxkLfAh8R4RJZktZhUQ9HsYBjGsJPIcj4vxVCFg54Qqde6Wzr6Wrv6VxflLb33XKphxyPQObmvt6MCF+I9++LqJPpXVpZwut93hRMjoBW9KaV5VnQxi7m5CIpahKtG0MktI0tjq4vf+9q9nktnR0RvpbH42mnLb+Sef+8y+x/a015aBgyZUI6QAAbpTdAICBFiOYIwrBJjekcPpsjtoNpMwo9bfQxChCqUKAnfKvUOIGIAYqqqVZZOYq0AgCABIrC1Vy4H3EWL9fj9WxJX5chdTZapcqtSdvCdjvQhB6LKJCBOs3NkmUYsaBAwvlLm1Dd1e/8GPfSItq67XX15aje459MnGoKO1szvgKm9bDCGOYZwIYA1TQgCFFBNZRizLMrp2iu/kEFj2RBsxNgbZALjzcUgJ1ijGSBR1Frswx6k7KzBrNRpCCDyE04JHWmWDYZn6utrlXC4VT1DaQIm6tp7iwxFfudv00GZ39g9vx4TOT47xorR1eGdXvcdhlzi+XKqU3WaLeKRoNJ6vDYmA5vPZPLLb7aIOqtSvgRDrdUoOHi2vrte6IkTN5GVFYyWvU9Q3oGyqUj3SAOM4vrOvf+bizMzE+EydWyukllNKX5e7Nuwt0wLDsA6XGwDQ2NSMeKkm5Pd6nRUcU0LG6/P2dLXcHB0NOLi4gGdmZjxNXT6v64MZYJBpaKhdjcWuXLoUFAYLiYV4Juepa/Y5eW4zwB6JKgswCJGR9RAviFt3P378wt9fOfX2yvxEYX1BFsMNze0RX8Xnntv37h+QVbffUSlAs7au4cDBJ/76Wz9cX7yNiJJIJJ/95L+LhIKcoSVTaZ1ojRsl7xLsH9i6Fo2/8OPvZVYml2dv847gvseftlsBgwGB8a96swUBgOay5CoLsA8/829cwUZf5ZS1kiBENnfwU5/5zamZ6Wg8hTo6Wzt6WpsbdGwlOV0eB6UMW3Fb2N2+vuHH/pB1LEdjGkX+QLh/YNB3B0quU7wgbt31VAEGInVVrbv1fvJFGvcffMoXroslks1NTfWNzZ0dHdV2CgAAfIHwpz73e11tzQ7REhAeAABEnMtX81u/9dnO9hZT0jhApQE2OLyH4yW77gIrECKWb2xpc/v86UwOcUIwELDZBB2/hWV1Lm4ZlnN6/VuGtjUmUxggh9Md8HkMfvGzHN/SOYQhbzoyxbg4wRaua7A5nPFkihckt8ftcloC0ONye/Z9+Fm3P2SdxTlEjOT0PX7wQz6/36w9oMq6aajGhEQ7XrQFRVswbNySTiHEuLx+l9cEbuuGQY+/er/nQeJ4wR8M+6vY4u8nXhDrm9qq7cW7BRHHi41NjSaarP5afFOb+gBrM8A2tamHqDtUqWKhgBDK5XIGzRFCVHOpUoRUSvHV99T9pKoqAMB4qah8oSArSunIvoIsCgghQpqm5QsF42/HuBRVxRhblCplgfbZEKH0HaoUIeQO786wXXrPP8yyRimllbxOfU/9KoOmtMzGBTZde/mm+GCC7rphCWfuilIKIbSUS+BeLqLT6aSUchwnlJuydF9hjEu9h+N541SpEm5T4HlUiSl9T91Psiyb0jKKorAsWwJkVhYslCKEBJ437oNxaarKMIzA89BKhBlVVRFCVmifDRFCMCFY01gAgCAILMMwDMPp3fveEAQAIwQAYBlG9076hlSGAQAwDMMwTPnjvr6n7ieEkCktwzIMg1AJQFtRgFEAEEIsyxr3wbhKrVFStX15RwghBiErtM+GMMalvmehcehX6F81Vcoaa8NN6dOvR4BtalO/pqpsVs1m0ojheMFQhV9NVXK5XL5QQAzvcrsEXn/JTCOiRCsUFVUjbpf+zAZKqarI2WymUFRFSbJLkihY79olAKWbKrm8zDCsJOnMdDNLBONCIZfL5VVMXW63TRRYCyw4NU0t5PPZXA4ynNPhFEXBlMug5QYYpQRj7fboiM0djDQ0ufVigCgl8ejq1NTkwvIqEpx9/f11NSGHnldOKdW/CKSU5jPJucW1dJ7s2t6vzwgAQFPktZWlm+Nja+vpYKS+tbW1sS7CWuQa/D0iGGcS0Vszay63p6ujubrO5DLJ2ZmpyenZvEI7untbGht8Hld1l/OUklQ8Njs9NTk7xwjOjq7uxvpat8OExLcyA4wW89m5W9f/9q++1r/3yU986t/pCzBKcDGz/i8/fGFmcdUbCBZSq+cvjT7z9BP7dm9lKmxgVVUJoRzH60gjpJQoheyRn7586vKk4G8zEmCTo5dPnDh1ZXK1oyVy7uyZxvbeZz7+b3qarZWUhDU1ub7y0g++fW1O3blnX1UDjFKsHX7jlWtjt1XW7pXA8RNnPnzo6UNPHnTpTnA1Q3I28dYbr128ciNY31BIXrlweWT3nsc+emhfpd3yl1XWWLu6NH/iyFv/+MLL47dvpTMZTe+pq6rIY1fOrKYKkZaepw899ZGPfjS3NjU9eTuaKlRqauTyxeNvv72SKFSKuMKaEl9b+sE/fe/w8eMTs/OpjP7TSaoVr14bmV5YOXjo2YMffnLvcK9SSB09dV63wYchVc7fHrv+vX98/uylK3NLq/mCXEVnCNZSqzPXb80A0fPss888eeiZOjdcmp8dn1qoolcAgMnRy4trcXdt66GnnvrIRz4KC/Hp26PLcRPqRZUVYNlsZj2eEN0hl0sUeP3rH1VRRq9cRKKzrWdgy5bB7Tv3BiWQWI8traUqNTU9ceva1cuJrFwpS4NgrZjLrK6nHU6H1+sycmIq51Kzi6tZldm3b3dfX//uHUMSx45cuU6sdA6LVTmTyayn85FIUJLE6p5XY01b/v/bO7PouI7zzlfVXXvf0Q00gMZGAMTGDeAuUhSpXba8O4mTSZzJyWRyzpw85HUeMg/zPGfmTDLOSWTJdmxnHEtxbMuyVkqUSJEAd4IkQGLfG72i97tU1Tw0CUmWoPRdqL7S4PcEnsP79Xfr1ndvLV/9v7m7mRL2N7aO7Ns9MLhnsKullM/dnV6so1cAgLu3xmWC2nuHdg0O7Bs52OQVi9nkwqpOtcwPU1O02Bzurt6hP/nud3s7mx2i/t0GVVXnZuftLncgFIIQIVZoavCqsrxes2ybqsipeHx1dXV5eXlpaXl5ZXllZSWbK8gaBAmhYHMcPP7YE48+3Lcjpu9GqpRzmYJMqeAKuGwMgv5QhGPY1MqyQi0UYACiUCT68GPPPP3okcYG0w4Q6AOr6sriImt3ugNBFiEIYUs0qirq2mq8vo4tLS4jlmtoaoQQIpZvCHgYQFdWksYt1xQtkcZoONIIIcNzhvbyCKXZclngGOb+GTvextEyliuVGg0k4ysvPv/8Uq549eqV7EZ+vYgDLuHoY8/sH94Xq013gBPEQLj5UCi6NJFlmFm9twIAAJJckREkAl89nMdwLEKUqBWVAA5ZRdNFsLtb21zhSMPstcW6JxBWOwDlGfb+WitvZynFslTPgSsAIFepUDfkxHu5IJyNBZBKZc0zl49TU8AghKrfOoMPCEJoZzmGUnpfK5uoBAKEat2Dh6LdsWNgMFCWsulkPJHa2T/UFHS0NIXtGk7FQoggiwA0vAjLsiwLACKkWny5KlMFoVWk/qpUhQxYhqmq1NXdGTvLIaL+bgeo9zK9jWUlCgi+Nw6iKoEUMqwJ6y6fraoUQg2hQKkslfIFAACgJJstIE/I7alxJwraHa7+vcOSipfnpjheHNo70tXkDgZDLpu+PDRDnU60u0QI8pVSScF2likV8iohNo+PhUbfRF9UGISCwQC+M10qFKpvpUx6A7GMx+epr2MBv3cV40I2BwAAlGzkShgAr/aaJB/nMw0wluO6enouTGeWZmcTsaBaKSynirEmZ6RmVSleEKOxNgBAd3e3YHd1dXV1NbrrJb8sOr0Bly2dzk5Ozbc2eKbvTpVkpaWzk4V1/1RYFIZlG2NtzJnx9NryylrcxqGJ6QVW8LW2NNbXsVhHx+qtlcXpu4n+FlwprCTzyBlsbjJhyqotwBBiEEK6+w8vCHsPPnTm8g+uj5118mppfWatzO9taGpt0PwCG9i9L9ZVjHhtugdkEEIEDdVlZUV3T2fL+trKiy/+2/H9fWdPnyaC7+hjBy0ZXRBChCCsrwIxYrlI284Gx29W5iZefdPb7GPPXZsaOfboQG9XHb0CAPTvGRm7+S83xt6LNrhK6zMLaWmwLdrR5DduWVuA9fTvDrS06l5IRAznb+r86leeuXHz1u3x64gVvvHNb+we7OO1J15FW2KYYJ7Xs9FcRXT4Y23tvN/AOBvC3QeOii7f6OWro2Nj/uaegcGhvYMW05kAAAAAEePwNvb24MZoPTfBIUSM4PzSV79+/fr1qbmplTl44smv7Nu3J6K33JxZeMNtjz/+WOTatZtXLzKc8Ojjjw8NDohmjIy0hcqRE08Ido/ucmkQQlaw9/QP+oLhVHYDsWJLa6vP49YRIzWrbW+JO9A8tNuzQzHUiB5/aOfgbrc/mC9KLo8vHG7wOK1XYwUAhmH9kR1HDkft9jpLSkHEtLZ3iQ5XrDOpYBBpioaCAd3VD82C5cWOrh6Xx7cjkUKc2NgUDfh9pnzstQVYZ3e/8Z90ewNub6DOYwIARIev2VHr3G8rGJbzBUK+QMgUlx4cEDEOT0NXnZcS7iHYHC2xjpZYR70d+QgOt9fh9raZPf6wXFrqNtt8kdgOsG22eYCwAIB8viDJCsuylVozKrZkU1UKQlhV1TGCoqoEY1mWNZnSd9VWYFVVEKoY3tiSJElVVQghQkhTQiCEEGMsSZLxp2OcajFRq6nwq6pKELJC+2xCCKluW7Pgns4ZJoRgbLTEMCGEEAIAwLWXdf0UaxgTSrWa0nfVltYoJRgbbxmMMSEEahcygBBSSrEZPhinegubghMWgRJCALBC+2xCCCGUgmqAsSyrKAgiZIqSSTXhDZlhDSFECUEIIYRqf6L6rtoKCKEpLbPpDKUaJNiqamQQQmQNnRkEIbpPvX35AIgQ2qwRaQ0ghFBVKaUsAMDjcROs8hwnikYPk2+OygRBMK4qRQhBGGs1pe+qrShXKjzPG28ZWZY5jiM6VKUIYRhGFATjPhinKj4nCIKlerMkywxCVmifTTDGiqqqhFjoPbTNNl88tgNsm20eINoGUbIsQYgYhjWS0kYJkRVZkRXIsKIg1K1YMKWKqmJCzdCBolhVMQGIQVYQSPpEKCWyrCKEOGOH+kxxRVEVWZYxATZRZFkT9GHNglJaqVQ4jmdNSi6pua0pJZTEl5c5m9Pj89sEvQ+J0kJ+I5lMZrI5xItNTU1et8vgOU59SJVSOpsry6QjZrToGVbVTCpewZzD4fR5NJfD/QyghFRK+XgyJ9pskXCdy3BKlVIqlUwm05JKw42NAZ/PbhetEGGU4EqlPDe3GGlq8ng8n2mqlKrK+Uz8+e/9bWv/yIknno416Kq5Sqkql15/+d+u3riZq6iqVOocOvrI8SNDvR2f8SuMEHz7yrn3L90pMb6//ss/MGQKqxvp9Rd/9PfEs3PvyIEDuy2X7EsprZQKo6dfPnsz0Tsw9LVnTtTVG3L1/JlzFy5OLycEFrLOyOOPnzp6cB9vAa27Yi4zcePy3z33i//wZ989cnjkswuwXDY1NXHzzTfePP3u2ZP+mKLq3F9SFGnu1qWJ2RVnQ+yRvYNyIf3yq2duh3yx1matCcR3J25u5Aptvbv8TkHTeJUQXMpvnH/vnTNvvzG1Wmrp3q/xJj5CuZSfuTvx9puvv/bG6e4R985B2Yi1BwFWldWl+fPvvXP69GsJ2R9prWf8U4JL2bWzo1eLCvP0l7/iEuCrv/7V3TsTkWhLX3ukjo4BShbnpi6NnX/77TNXx2eezRfMUlWp6bWRSSVnZmbyMgJAhRDr1nRRZPnWlTGJcu3dg4cPHTp67JgDFNdXl1eSOa2mpicnrly6lM5LWONuMlHlfDZ5a3K6okgsx6ga1HI+gVw2vby0tLye5XkEISDW05FXpVJife321CwvsABCjI0WOjMCVpX1hemVVN4ZjB49cuTgocPdLcFMKjk5U2dVKUDx0tLS3MISK9pUVSZatcq2pqYAk1Us2F1PfOUbfd3Nbr1nVQAAqqLcmZx0ef2R5mae5+2uQGvYK1cqK/Fa9bGwquaymXQ6PTc7fffO5MraeiqZKpbKas39hmCMseoOx44cOTDYZ/R1Lkuy6HDvOvDQ4eGdQZ+uYfMDBqsKYvlIrOfJx45GG+uc9Y9VdXl2mrG5/OGIyy6wnNDd1Y5lZXFhub6OAUoIYKOtHc8++7TfYzNx3a2mIWJHV09bxw6GYX7psBsZl2JCE9l8qIsTHPcOTTnctlwJl3I1KjzSQi4z+s6ZVLly7cbNtUT6vbdfnw04+nbt6+xoD9a2usCJjqZY9x+0dC9PnllazYG83psBAADQ1NrR2NJWzG/8fPatjKXEbu5jc/kHhrw7enrmrr/Ks4n6OoMJSWzkgMDx9zuA02UjWL2n0VJHGP7AocNYLsaX7pq7DlxTgDEMU830MaoqBQCLPqrmRCjUIFZFFUVOrcfXi5XsRq5YKKQS66xij7YXZKXWkR6EEDIMz0CEkHHpDIZhKEUMU3dBtC2BCDEIcpiFWhr6wbnDQgQB/HApVAisIBIEWZaFhDV9w6DWVURTfhgh6Pe6iaxIpariHC0UylAM2F01nhiHdoerb+++mKwm40uibX1oz0hb2NUSi7rsmgauZjaidfZwtsYqHjII+rwuMrsmle5lvhfyJcgydpcl9jYexJP8bFWlWLa9vf1WamN9ZaXYFSFyeTWRD3SJDSFvbQag3ekeGjkAAFidn/L4VkYOHuqJeuulKrWNVhiWbWxuAednsol4Nl8QWTg7v8xwXGOTtcplmIi2rgkhggZGQ5wgDO3bn8+uT968OjM7O3F9bCEju7z+1ojmo/vNsfbenTu9dl63OxBABKFx+dGqMQiR1U5JfRS46WIdnWBYrqmz3walxOL0+MTdxfnp0RuTgs3et8M68gEQmTrg1/YFCzZEvB4vpzeLhOX41t49x/avXbtx8/nvP08JOXD80f0jw07teSGDe/apKhbtdsTobAxWsHm8vhA1oV4eQsjjCwHksYvWrL4HIIS86AoGA0aqDZrgBkKCK/D0k4+Ojl168ac/RBD6Wgf2DY+0myGQZgIQsbzQHI06HXazBkXaevYjT3zV7gn5nToVnSBEgt09fOBwpDmW3shDxMU6uhrDIR3ahja70VG7JxgbHnH1Sia0JC/Ydh14VIZuf6DOWUhbgVguEO175OFml7vG0fgDAiKG6+nf5fQGetcSKgENjS2tzU02vp7FwTaBiHP7G7/zR7/f3dmu9739u2gLsP5dIxAhhjEwc4Mo0hwLRaIqViFkOa5uiZ52V6jD4afUjDKhLBfrGgQUoXolLv97IMS6/NEBTyOE9ffQ4w+5vP6uHpVQwHOcdc5uQsTand6jR4+wLGvWnou2UOF4c4ZADMsyZpyGNAJEiDXr0ULIshYdHG6CEIOQVTL9EWJ43irOfBgIkWBYcvPDWOXlsc02X0juid5UNVWMyzBVpV2ASQokmBBCCCaEqmrtX2x9V21FVR7IeMuoVdEbCCFCoOYavBBCACGlVDXDB+NURY3MEhQyi6oUjxXaZ5NNYQgWAFAoFKqKEZJsNBmcEHLvPiFEhmNMVRRCiCzLmobp+q7aiqoQHTTcMrIsVwXtEIS0dscgrMq2ybJs/OkYR70fWtAyEydw/7VuhfbZhH5Ytq36QqK0qn5liE21KuOmwH0BJq1u6bvq062Z0jL33voaV3WgeT6YQNUTSqEVnLkPNa/LmcWmchgLAAiFQpl0WhRFl9PoJomqqpIkAZNUpUqlEsbYZrNpMqXvqq1QVVUQBLvNaEkHSogoCJRSrKraZB4J4TjOYbcbfzrGoYRYUFWKEMIg5LRA+2yCMS4Ui6pirLbINtts8+lsB9g22zxAtAUYIVplM7eEmqdurffXVRWrJpxBppQQrCiKicdgTYdSoqqKpVb/KKXESv5sYm4raZilUEqy6TTLCTaHw2ACO6VEqkipVDoQCgkC/5mmclCKCS7kc4VikVIo2h0et5tldIpsE4KlcjmXz5UlRbTZnU6n3SZa6nAYpVSRpXw+XyyVGJZ3OJ1Oh4Otf8YJVRQ5k0o5PX5BEFizEpOMQSlVFTmVzLi9HpvdZopPtQYYJViVy7/82U+CrT17Dh2NBgylAsrlwtTExPd/8K9/8Vf/uaO9lf0Mm5dgJZuMv/Tzf5lZXCmrINrS8dWvf6s57BV5PSsixWzq2pVLv3n19aKkuPxNBw8dOXHskEO0RGZdFSxXpm6P/+blXy8ns5C17d534JFHHmnWXhTbXAhWVxdnf/zccw9/7U96e7r8LjOTJ3SjyuXVxbnvv/DSM197dteeQc6MblnTm0yqlOZn7vzfHz3/4i9+OX5nRpINbHBRml5fefftN370wx++fe5yNlfU9zWOry7PzcwUyorWr3kyvnL+7Vdn4qWdQ8OHh3dxOP/Cj38eT6T0eEHxlbHzY2MXG9qHHn/8iZCd3L197dyV2zosPThm79y4fHE0KYsnTj62uze2tjTz8qtv1XcsWypsXLt4/mc/+aeXfvXb5bWkUlcdnntQupFOXHz/3eef+4c3zpxfS2bMGiTWFGCJ+Or1q1emFtez2ZQslbUKOX0ICqg6Pn7j5q3bmXwhm00renff796+eXF0NJmrYG2dha6vrY6+f66htWv3vv2HDx3oaG16//Tr68m0gjXflCoVJ+5MLcWz+w8fPnjw8N7BHqVcvDB6xUqzCjo1OTE7O9/Vv3f//gOHD+0XEb12cbQgYY3tZiZz03du3ro9v5IoFtKyqvkV+UCg6tSdyctXr2XyxUw2IyvKZ6oqlcvlsrl8e//+ttYGj9NYVitR4+tJweHePbzPLgCtcwFCSKVcLpVKk7dvXr40tprIFopFWVFqXV+gJJ3J3LozP7RrsLk5Gm1pa2vvLK3cTWfzZe2fZSmfiacLCmPf3b/D5/MNDAy67Lap27f169qZDlUXFlczufLI/n1+v7+juy/ocxfi88mCpOOFYhaJRIIgvr13sD3qEi2S8ktxMp3BgNl/+IjXJZh4RL42VakdO5tjnQ6n8/aZn+o4u/UhIGD4J595lijFyZtXdViSpcrS7FxZVePriXQ6szA3zUmeSFPU7/PZa5n5EKUsy/EycbmdAs9CBnK84OGUcrFckVSPTds0rFTYKANE7S4bCyEANqeTAbCSTcsEiMgCOi4AACxvVOQChl6vEyGIEC9yrACUTLYcdvKAq89Sx/DBY8MQLszeOfuL/2OJVgIAIP6hh08ePHRwI7HwfRNqFXxATV2K53mO4xgjFR82gchmsxNG1bVqRzbSiTd/+dJyrnT58sXMRk5iXwq4xMMnnxzeu7tVrEl3gFKKAYCoqmQEAYQQAUIp0D5QoZRSCOjmnUAIIKXUWov1BAACN9OzqgpOlBBSx6+saLNV9Qvq5cAnAKEoihzCObOdqinAPsiaNSPCGAYCnami0OZw9e3ZF63I+WxqJZ4Y3DPcEnR2tDY57bUtQ0HEMayLgYqsEkwACwnGkoo4nmW0Dws4XuAAQIqiUsBCoCoKAYARRBZZRscJMiLDiBDIsgooDyjGmKqEsdk4VL+Tl/fTrCzSRlUgQlDzjKUG6l3JRhvQ5fEdOnmKUpBLrc3MLz988vHeZq/As7UmziPWYbc1+RzxeKKjKcQTWshtVBiXw2HTMRmwOT0uFuWkYipXDDjFdGJdVrC3IcJCy/QdxAXczjWeWV6JR90tspQtliXCO70u0SJbT194tAaYmQf8ddiCELIsBwAINYQlDN0Okec5LRXGkN/n29nTNn5jvDnoLovqwsKcLdrl97pt2vfBBKe/we9cT6zfuD091Nl469bNklTp6uuzxrQdAAAAZFpaGlfiaxcvXu4M2XNrU+lcwRlpDbkE087E6/cNQAit8y66j8niYNp6lSCKHMcxJvw+RAxrt9sZRqe87v4jx3bLisvnZDSONptaYo88+aUXfvKv/7x4ixICGPZP/+OfRSNhHf0NMvyBgwckWfrn5/72dIM/tssrzQAAGuBJREFUnc519+9+8pHDmg09SPp3D+eKlV+88vLfTV/ObWRDTe1f+vKXeDMeoUEQQqLNzrKMlWIMQoTsdhtr3vddW4CdePwrrmDUZ3jfHbF8U3PHn//5n0YjDfre9y6Pl1KKkOaeYnN6uvp2f/MbMJPLYwpdHn/fwJDHpUtzH8KWju7jrBhu7VQx4UVna6yttTGgw9KDwxuM7Nl/WHB6i2UJMFxjtKWra4cVenQgGP7GH/6n3s6Y02aVxBfIcB5/43e+8/s7OuqkKrV7+AjD8aLhFoGI84ciTz31uM/n1fcu1X1amWE5ty908PCRXL5AAbLZHQ6H/qwzh9vX2eOINLeUypLN4bTbbHWp1vkpcIIt2hILhho2cnlOsNntdptoibwkt8f30KmnHS6fddRvIGTtLt+JkydcLld9VKU8PpMEIiHiBTEcEc2xpvXHIeRFe1CsURD/34HleI/X76mv3OCnghjW5nDZHNaqrsRyXDBU16J7HwdChuVDITPFLeueVb3NNl9kWHBfLqKKQXObRsy1VtVjeqBXfbo1c+5F79ZPVQbDCjl71LwGMRFrulT9gwUAbGxsSJLEsmy5XDZolxCiKEr1780/dCMrCiGkUqlomnHpu2orVFU1Zdm2UqkosgwhZBim9lOeEACIEMZYqlSMPx3jqPfPlVoqD0NVVQKhFdpnE0IIVlVgui5iVTcPAKCqqvH+XbWmYoy0CAbpu2orqgdvTdFFxFV/NKpXw/unv62g+0coBYRgVSVWCjBCCIDQCu2zyT3trWqABYPBjWxWFEXjujwY401VKePCQ+VyuaoPpcmUvqu2QsVY4HmbYVUpQqkoivpUpViWtdvtVlBNooUCyzCCIFhHUB4AQChFCDkdlqjiV4UQUiyVVEVhQXXJG1Y1Z0345lTHU6ZYq+rabvJAr9rSmkn3UtUk0DdLuPdsLNCn4f1MBys4s0k1ddhSLm2+QxGoNlldvfkU7iWBa3RQ31Vb2LJCBWELJTtsowkLBf0223zx0HjEsFhADMvxgrFjlwBQqqpqoVhyOp2s3nqZ+n+ckHK5JMkypZDjebvdjowtilFKFamMKWJY1mqZHPehWFUrksIwjFjvTA6C1YokSRWJUCDabILAsxbQCVYVRZIqFUmGCNlEGy/wWtNcP5HaewOlhIyeOW0PNLX39IU8hib9BCvx1ZVf/+r1p7/2bGOk4bM8OUEpqZTyY+fOXL81WSFse9fOk4887LJxRpTMVEWaGh9LyY5wY3N3u8WyEwAAABCM88ml0evzvmBoZG9/fZ3JpRPXr125eOV6QQIjhx/aNbCzscFf5zEwpYnVhevXrl6+fou1eQ4eOtq3szvgNWFVqaZeRbCaScTfe+NXL7zwo/fHrhUrhtZDpXJx/OrYz378w5+++Eo8mdF3ALiQz2UyaVm7cOhGav3K+6dfefsia/N4Hdz0rUv/9OIriXRWjxMAUEry2dT1sbPf+973zpy9mMzk9dl5oEjl4sL0xAvP/f2vf/vGzPxqPV2hlMil11/5zfnRKw5feEd75O3f/vrs+xeSuTpvYeVTy6dPv3127EZzW5fPDt588413zp6XzZC7qinA1teWL46eO3P+6vTM3exG1oDOFgVEvXbl4rlz5yamZhYWlyqSzpIzd2/fvHjhQnKjrDHCaGJt9fx7Z2y+8M6BXfv27m4Met565TfrybSiK9CzqcT49Suvv/XO7PxsKpOtSEb31k1HqRRnp++8/Mpv70xPLa8lcsVSHZ0hWM3E52/emZUov29kZGR4xMXKi/NzU3MrdfQKADAzeWNxJc67QsMjw8PDw3Juffbu5Gq6YNxyTQGWSacWFhZUwev3Ox12Y3MMos7OzmbyxWBTVOCp1qnc5pbr7fFrF86djacLsqzcL5lU0/WJZOLq9Vv7DhzsHxjYtWvPwMDAyu2LqfSGpOh5a+Q30isrq/FsubU17HIa3St7EChyObEevzO72BqLulyO+updqaqyMjOZV5lQS8feoYGunv6RwR1yuTQ5NVdPtwCYvHmDMkL30N6d3Tt27TsQCzmlQmZuJW3cck3REmluO/mkLxSJ/rf5CyJnbD4KmUPHTh06Ul5dnP7VL17TurZACC7lCyql+Xw+ny/kcvlcjnE5nbzA1zSJokqxVF5OS8GQ3yYKDA9Fm8MNK/l8qVxRnILmW/MEwoePn9x36NgbP/8fWbY+hwM+HY639w3t/cvWHdLqaOa3U/V1BmO8srjCOZyuQKD6bm1sbBiburu+lqyvY6vLa8ATCzQ0AAAgZEIB98ZqaW0lBXa1GbRcU4C5XG673cFxnOEMNAgQGwk3YDkfX5rVfjlJri2/9IMfLOeKly9fym7kV/NKwC0eOfXUyL69sXANqlKEYkrKEDDMvVuBCLIcwRjrq9zgdLltdmepkLPsViLLix4vxwv8YqL+K3WU0pKqEAai+29DhkUUYKzWeWhdVhUCIbr/8UAsAwBVFRNKZtYUYCzLVovZmaEVAHmex5TTZQoKNntn705fWUqurwlCqru3PxpwNEca7DVq2UHEQMYGAcH4XtI/oYqCGEanJh3DsAwDZNZSua8fASLEIiTyXFWlrs7OQGjjOUhkcn8aryoYAsRydT7ULHJcBQCi3hOfxQqmFJrilTU3bbYCutzeAw8/ohK6kVybXVg++vCpnqjX5XaKQm17OwjZRL7BJWazeUmWbQhI5VKZijabwOsq/rCNJhiEQqEgvZ0q5fOYUAaBVCqDGMbjq3MxioaAf1HCuUyWUgCoupErEQp9fhO8+pxlcjAs5/EHAsFgpDHS1NTU0BAKhoJOh73W3WrIejzuzljD9PRMPJ5Ira+tr69Bf5PP67Jpn4BtoxWG46LtnVQqpddWUpmNfC53Z2aes/GxWFN9HYt1dhJFWpyZzuVzmVRiOZmlHBdrNuFo8+f1tT1y+Fh/uRIOORmNu9TRaOvxE6d+9MtfZ5busEBejyee/OrvRRqCXN1lzP4/ADFsoLm7pyUwMXP7e//wj2E3c/7W6kOnhnb1dtTXsb49B69NLl0ffeuFSqqcXo4XmZGh3taQ27hlbQF24Ogpb2On125UvBsyfCjS8s1vfT0c8uvr2MFQmBDCCZpnPy5fcGjk6FcJny+WVAo7dgz07xoO+jxGwovjxd6hIyUYjtay0FIPEMP5wp0HR5yhSHMd3YAQsYLj+MlHm2LT8VQWAPjUl58dGOj3u8zRR9GNK9B47MSJSLR5o1h22TsH9rf1dO8QDC6YAwC0Bti+g8d4m8tlPMAQF2xo+spXngn5ffoCjK9x0vUxOEEMNbUcOybGE0lMkdcfbIo0GFyjYDl+R9+ICm0Op7WEZTZBiPWE2of3RgRbnbsyhKh9R683EEokkhWVNkWbfR43b2I5E12wvLijty/YEI6vJxBvb4xEPG5zhKW0BVhLW5cJvwkARIzD5RkcrM/UFjFsoKEx0NBolkGGYUONMbOsPQggQjanv6X+JzYBAIDlhFC4KRSu87zrdxBEe6TJHmlqMdfs52yRY5ttPl9sB9g22zxAPlCVYhimXKkYNEcw/kBVyrAIiawoBGOEkKIotW9y67tqK+6pShm2U5EkRVEghIhhNNUiq6pKVSTJ+NMxjqqqhFJqQFn5QXBPVcoC7bMJIQRjDKoBJkmSqqr4Q7GhG0pIVTsJqio0LOqEMaaEqBhrMqXvqq2otpTxllFVFRNSVY/QEl4QQkgIUVXVuA/GqXYa1dwCJIYhhFAIrdA+m1BKKSGgGmButzufy3E8L4pG01UJxlCWAQA8zyMzjqkSjEVBgBrfl/qu+kQUReF5XtC7aPlhOxzHUUqrMq+1X0gpZRhGEATjT8c4GGOWYXieN6VtzQJjjBCyQvtsQgkpE4IxZgEAgiCUGIZBiGON7jtjCO99GVnWuGqaghCglGEYTab0XbUVCEJTWoZlGAahexq9NX9aIYSUUoQQyzDGfTAOgxBCiGVrrnj4mYAQQmY8IxPBGEOEQDXAPqRxZuZ33wTJtPsuaTKl76pPMQdMkX/btKDx81X9/6Y/Hd2Y2bbmAS3m0qYzFnoPbbPNFw9tX1VZqkDEMAyr73DHhyEYlysVUbRpKQBrJpQSVcWYULHGoy5bmMEqlmRJVTHLcTzHf/YiWTVCCZYVDBHk6302hFKiyIosy4QCQRQ51oTuZBaUkEpF4njTnqOmzk0XZqZWVtaKkmERcEoKhfyVi1fyhaIJK326wFJ5dXX17vSCESOEkGwmeePK2BtvvHltfCKZ2bBSiY8PoJQolcLMzPzKSqLevgBFKi/NT79/7swbp9+ZW1wpVaR6e3QfSmWpcuP6jXRGpxbTx6nxC0YrpeLq/N1/+N5z3XuOPvr0My4DRS4pwSvzU++fPfuTl979m//+X/t0JX2pqkIJZVhOx8uPUqpIpXOnX7l4Y45xNw/26c//mpu4MTY2dm1qJRrxX71yJda188Spxzqi1qoiS7CayyTf/M2LNxYqu/YMt9XzbAilGL/7xqs3J6eKmHEJ4PLla0ePHz96+KBTrPMSBSU4GV++fOHsj19690///LtHAsHPLhcxnYzfuT1+/vzYhdFRR6RTUrD+H6T49vjVyxdHz49eun7zdqFU0lc2a3rydjZX6Ozb63NpU0ElWMlvZM6eeefC+XemlouNHfrXdimWx2/cuDU51b5zpLctPEEurK8uvn/pekf0hG6bpoOVyuL83Ln33hk9/95ywdvc1l1HZwjGxfTK5eu3ijIYOXTQLcKVX/1qemqqqbV9qCtaR8cAJTN3J65cujA6dvHq9fHMRt6sgVVtqlKp5J3JidnVLESYZQ1p4AKCp+/emZ1fkAhASH+gToxfP3/27PpGWauWBlaVfCY5dvnqRj7PcKyREZ1Szt2dWciWyVPPPHn4yNGTxw85BGZs9FK9Br2fiCJV1laWLl29QRGECNW3Sh3B6vrCndVMyR9tf+zUI0ePPbK3p7mQTU9MzdfRq6pniwtzk3enKgRCSDTlAnw6tWlyCPb27sGHnvz2//qbWbfd4BSZhKIdJxujlWL2wvvX9Mm2AUqzmXQykSiWJVlREOJQ7avYlHK8cODE0w68dGV8ft6AMldpI5WvECB4wl4HgiDc2Mwz3Pr8lEoBB+uuf3EPSkkg3HTiqa8H0cKLb9W5H6uKsjg9wznc3lCYYxAAoCMWm4zPLi3WVQ4VAACIr6H5yPFTAY8wfn3KxDWXmgKssSkaCIY4wcYbPYIGAeIHBwewnL89flX75TQVX3n1pZfWCqXR8+eS6Y0s/t8NXtvw0RNDA/3RYE2HX1je5g83H/aG4zNFBi1q9+EDZFmSEMQCz0AAAUAciyAlalklgEVWKMkCAACC3d0as/sDwdXJ9bqv1RFKs+UK5VlWvLdyy9tYQlW57mmEiO/u7pYr+Ux8wdxWqinAeF7geQEAYMJyKkQOhwOzWJ+yPsOyLo9H4gSH3V4sSx6vz++3O2xi7cryECGOFzheyHCcwa8MghBBgH5nNEGtpTCFGFZgWATxOlP/OkwQQg4hRD/Ybb+/i17v/VgIbTabwJJc0mTxLQtll9SCzeEaGB4pKzi+PC+Ia7v27u9sdIcbG122OlQMEWwOAYKCXJFUIrBIKhUxAYLTZYGebFEQQn6vh0znpVK5uraV3ygghnG4LFSc0lw+XwEGRZu9o2cnAODWlU7Eir19/T3N3nodOBddXrfAplOplUQm7LGvLC9XVDXU0mKdCZjVYBimsbWFnr2TTaznC0WOgXOLKyzPN0bD9XbtQfH5CrAPGNwz3NLRE/HZjVYqMwArero7mpPraz/95xePDfeefeu1IhaPHHtyO7q2gmG5SEd/QHxteerGK2/4ox729OjN/gPHh3aaI0VhQbQFWMeOvlA0ajeu0YkYl8c/MrLP7XLoG021tLVHVGx38LpnPKLdG422QKf+RVGI0O7hg6xgvzE5MzZ2kfc09nXv3LernhtNWwERY3c3dLZLTRETtP4MuIEEu/exJ564eXtiaXpiGaDdhx4eHhmJBk0QSDMByAg21+7dQ8GATi2mj6NVtu2kzR10O4yqSiGGD0Wav/nNr4WDOmXbjOs3OX1N/QNiTDKyLgrD0VaGFx1eXzZX8gbDsdbWxtoWMz9jEMP6GjoPjIScbm9dHYGQ4Xr7dzk9vvnFZVkFsY4dzdGIXahzemQViFinJ/T0l56KtUTNyijVFmBD+w6Z8qsQcf5g5Ikn61kM0uFp2OFpMGiE4fhwU3O4qZ5ig7WAEOsOtuyq59frA+wuT/fOwe6dg/V25HeBiLW7fCdOPGyizXovj26zzRea7QDbZpsHCAsAKJVKiqJynCrLRgsiYYxVjAEASFGIYc0ZVVUJIYpGU/qu2opqQU3jLaMoCsYYQog0JgRWRW8URTHug3GqehAIoeofFgFjTCm1QvtsQgghm6I35XJFxeaoSm2qVakQGu/fGGNCaTVgHvRVW0EIwaqqGJaguBdg2k+2bwaYFVSTqpJhVSm7evvyAQRjSqkV2meTjwQYQggA05QnNjUbzNGxoFSrKX1XbWkNAJM1OfReboU+/YDkW4wCoQU1OSAAdFO2jRDMc5xx4avNkYMgCMZFnSilCGOtpvRdtRUVSeLNELRTFIXjeUIpJkSTqhSpyraJohVkyRRFYVlWEARLqUopimI12bbqUE5VVRYAwDCoetzDeKsRQja/YMatbb4sNZnSd9WnWzPnXqp/aVeVqsqVWqFPm9u2pmE9lyil1YRUC/m0zTZfPLRtNGNVBRAihIyPd6uzUpbj6na6ozpao5Q1Q7CSEEzpvbYxbu2BQKmKMYTQlJGzcSilWFURw0BoiQM+lFKCsaqqACGWZfUdp/o42qzkN7KFYlHBJqzOKbIcX4vLslKvI+yU4GKxmM5smGCKEqlcyOWLpYqFVoo/CiVEzWZz+UKp3p7cQ1WVTCpRKkvYjMVe4xCs5nPZhYW55ZV4qVwhJmkr1PryxqpczKV+9NzzTV1DB4+fiAYMHeDJpePj16796Gev/dVf/5euzpghmQ9dUIInro1eHp8uQ/ef/dGzRkwRgvOZ5G/+9afE1dE/uGt3n/Uq8VFaKRevXzh9cTLZsaP3iZPm5LsZQa4UpydvvfCPzz/9h38x0Nfjd9XhON+HwUrlwntnLl66nCkpqiK1dA2ODO/b3ddl/NNaU4AV8xuLc1Pnz5377auvHUXu3YeMbDLS5fmZq5fHzrx77r33r/9xvqBPVWpxbqZQLDe17XDZtQ0yKcHlUmH82uX33n791mwm1LZL829/CKlSWl6YvfD+2ZdfeaVl6PFoXTWbPhGC1eT66rXLY2+/+crCht1uOP3SONlUfOLW+NtvnX7jrdN7H/tWd3f9v2DxhbvjtyfXc/KePYNSITM+cVPgmI72Vo/hask1qkolbt8av3ZrKp1JK4ps4OtJAVHv3pkYvzm+tBovlopY72jzzu3xsQvnExsVzapSWMlnk6MXRqfn5rKFvCwbElHNb6Rnpu5evHwtlU1LkmzK1ra5qHJ5dWnh/PnRlfhavlhS1PpnYKwszd+8eWtyeq5YyqlYBaD+Wq1TN68mMoVIx8AzTz/95S9/yQEry3PTy8m8ccs1fcE2cvmyTJ7+1h+XM3M+t4GvOQWAqKmNUnP7jo7u3hvj/1OrbHZ1ZkwBWJqfuzu7uPNIqdHHQ56v7jPUYgErcrmQU4TAseOH55Zz60U997FJbiOrULRz+FijV8He+p4E+WTkSqkiq0Kg5Ru7ml8frb+sLwAgvp7yhJpOPvWlzMJlm2CJFZepiUlOCHbs6BZ4XuBDbRH/YlaZXoj3tRrVkK0pwDp29DRGW3nR/prDZjAfATDCIydPYSl/Z2Jc+/W0kMtcvzCWlaSrN26uxpPvvf36fMi5o3egtaXZ57LVYoITHY2x7u98uzU5P7aeGgfGAiza2hkIN+fzuVfi57KWXD+0uXwDu/Y2t3UkZ97lOQMideYxfOCwiun8zORLVlg9BAAAkMoXVH+D4LJX/2lzCmhDLWYLxi3XFGCiaBNFG4TQhEINEHm9XiwhntOxOE5lqbKyOL9erCSSqUw2u7wwj/N2b0O0IRwGoKYAQ4gRRHvI5iivi8aX1HlB5AWRgYSpo3TBp8KwnN3BcRzKLbIWSSZyutwAgHUrJV5QSgH8oC4ughAAasqAv6ZebnrdML0GIS+ITbGYs6LM3LmFCWiJtbWEXCG/T9SkYmDe/Viky34qEFpMhMeCjeay23KUyuV7ZSikikwpsDlqemV/Op8v0Rvo8viPnHocAJBLrU7PLZ149MneFl+9VKW2+cLQ2BjOJdRUPK4oHQQryXSBQDEU9hm3/HntmtGWWHdPr9vOW3Rkts3nir7B3XI5f+Py+aXVtZmJq3eX04B3dLeYsKWh7QvmDzS43W7OjJkYL9iizU2iwOsbL/Tv2tslyR6vTXdKC8uJbrfHrxrd6AAAIMS4PAGCXDbRBGsPAggRLzj9Pq/LMhKfHM+HG5uddpsVZq/Rrv69Q4mr12/++J9+SBQ52tU/PDzsNSzuBDSrSj10yhWIGv9hyHANjS3f/vY3GoJ+ffHhCxgVcHH5owODTHPZhGVilhd6h45UoD9sxqDiQYAY1hvuPLjf5wvUf6O5itcfePzZ32tvjVpBUsrhCe7es9fpci/FkxBxHTt2dnTETJl6aAuwgw+dqpaQNfiriOFDkZZvfevrgijW6/3l9DUNuMOUmvDzHCf07joMKELWyKP9OIjhfOHOQ4F2aJkzHV5f8Ikvf5vlBQZZoNEgirZ1RZrbZEWGiOU405J9tYUKL5i1tAoZhrHb7SZZ0wNCDDLp0UIIOa7O2XT/LohheQv05E0QQqKtnh3g4zAsazPjaMWHscr7bJttvpCwoKrHQsimXo0RNrU+TLRGCFExrn0kp++qraCUmnIvmBCiQykEQgBhteygFYScNtu23o58BEopqVZmtAxVoSuwKdtGMMaEVCSj9d6r3RoAAGTZ+BHuqjKULMuaZg76rtoKQoiqqsZbRpFljuNisRi53/Q14g8EvF6vKU/HOJgQoKoAAOvM5UBVR8wa7bMJJaQqn8ECAAr5PMuyhJBSyYTTeNXeo6qGstQ/bAqXy5rqbem7aktrhCiEGJcEk2TZ6XAcOXJEkyYHAMDpcrW1tQEATHk6Bqke+1UUxVIV0O49cSt9wQClECGGYf4fKi3ftsB+JNoAAAAASUVORK5CYII=;" vertex="1" parent="1">
                    <mxGeometry x="1080" y="103" width="522.17" height="747" as="geometry"/>
                </mxCell>
            </root>
        </mxGraphModel>
    </diagram>
</mxfile>